<?xml version="1.0" standalone="no"?>
<!DOCTYPE svg PUBLIC "-//W3C//DTD SVG 1.1//EN" "http://www.w3.org/Graphics/SVG/1.1/DTD/svg11.dtd" >
<svg xmlns="http://www.w3.org/2000/svg">
<metadata></metadata>
<defs>
<font id="effra_heavyitalic" horiz-adv-x="1148" >
<font-face units-per-em="2048" ascent="1638" descent="-410" />
<missing-glyph horiz-adv-x="315" />
<glyph unicode="&#xfb01;" horiz-adv-x="1198" d="M119 702l49 261h143l8 43q37 195 178.5 296t358.5 101q47 0 100.5 -6t105.5 -19.5t102 -34t91 -49.5l-157 -223q-51 29 -109.5 49.5t-136.5 20.5q-72 0 -129 -31t-72 -104l-8 -43h584l-187 -963h-331l135 702h-250l-137 -702h-332l137 702h-143z" />
<glyph unicode="&#xfb02;" horiz-adv-x="1191" d="M119 702l49 261h143l8 43q37 195 178.5 296t358.5 101q109 0 216.5 -23.5t217.5 -85.5l-250 -1294h-331l217 1124q-37 14 -88 15q-61 0 -116.5 -31t-70.5 -102l-8 -43h156l-49 -261h-156l-137 -702h-332l137 702h-143z" />
<glyph unicode="&#xfb03;" horiz-adv-x="1808" d="M119 702l49 261h143l13 63q68 377 428 377q68 0 121 -16.5t108 -51.5l-131 -229q-35 25 -76 24q-45 0 -76.5 -21.5t-42.5 -84.5l-10 -61h277l8 45q35 195 177 295t359 100q47 0 100.5 -6t105.5 -19.5t102.5 -34t91.5 -49.5l-158 -223q-51 29 -109.5 49.5t-136.5 20.5 q-72 0 -129 -31t-71 -104l-9 -43h584l-186 -963h-332l135 702h-250l-137 -702h-332l137 702h-278l-137 -702h-332l137 702h-143z" />
<glyph unicode="&#xfb04;" horiz-adv-x="1800" d="M119 702l49 261h143l13 63q37 193 141 285t287 92q68 0 121 -16.5t108 -51.5l-131 -229q-35 25 -76 24q-45 0 -76.5 -21.5t-42.5 -84.5l-10 -61h277l6 45q12 98 57 171.5t115.5 123t163 75t200.5 25.5q109 0 216.5 -23.5t217.5 -85.5l-249 -1294h-332l217 1124 q-37 14 -88 15q-61 0 -116.5 -31t-69.5 -102l-9 -43h156l-49 -261h-156l-137 -702h-332l137 702h-276l-137 -702h-332l137 702h-143z" />
<glyph unicode="&#xd;" horiz-adv-x="315" />
<glyph horiz-adv-x="0" />
<glyph horiz-adv-x="0" />
<glyph unicode=" "  horiz-adv-x="315" />
<glyph unicode="&#x09;" horiz-adv-x="315" />
<glyph unicode="&#xa0;" horiz-adv-x="315" />
<glyph unicode="!" horiz-adv-x="608" d="M84 0l68 348h335l-67 -348h-336zM178 463l158 903h362l-194 -903h-326z" />
<glyph unicode="&#x22;" horiz-adv-x="901" d="M166 821l106 545h301l-106 -545h-301zM596 821l106 545h301l-106 -545h-301z" />
<glyph unicode="#" horiz-adv-x="1404" d="M78 279l39 239h227l88 223h-166l41 240h221l127 309h258l-122 -309h219l125 309h262l-125 -309h160l-41 -240h-215l-89 -223h154l-39 -239h-211l-112 -279h-261l109 279h-217l-113 -279h-260l111 279h-170zM604 518h219l88 223h-219z" />
<glyph unicode="$" d="M20 162l203 235q68 -66 151 -101.5t175 -35.5q90 0 131 31t41 78q0 27 -8 48t-31 40.5t-61.5 41t-102.5 46.5q-150 59 -227.5 144t-77.5 202q0 90 28.5 166t84 132t137.5 91t188 43l33 170h234l-35 -184q92 -23 171 -66t136 -108l-209 -197q-63 68 -131 91.5t-123 23.5 q-74 0 -124 -27t-50 -84q0 -23 8 -42t31.5 -39.5t66.5 -42t113 -48.5q86 -35 143.5 -75t91 -85t48 -97t14.5 -112q0 -98 -35 -174.5t-96 -131t-143 -86.5t-174 -40l-35 -190h-234l37 203q-109 18 -204 63t-165 117z" />
<glyph unicode="%" horiz-adv-x="1810" d="M199 860q0 102 31.5 187.5t85 146.5t123 95t147.5 34q70 0 121 -21.5t85.5 -59.5t52 -89t17.5 -109q0 -104 -31.5 -189t-84 -145.5t-123 -94t-146.5 -33.5q-70 0 -122 21.5t-87 59t-52 89t-17 108.5zM317 0l1002 1290h291l-994 -1290h-299zM422 866q0 -47 19 -69.5 t52 -22.5q25 0 50.5 16.5t47 49t35 83t13.5 117.5q0 45 -20.5 69t-51.5 24q-25 0 -50.5 -16.5t-47 -49.5t-34.5 -83t-13 -118zM1074 258q0 102 31.5 187.5t85 146.5t123 95t147.5 34q70 0 121 -21.5t85.5 -59.5t52 -89t17.5 -109q0 -104 -31.5 -189t-84 -145.5t-123 -94 t-146.5 -33.5q-70 0 -122 21.5t-87 59t-52 89t-17 108.5zM1297 264q0 -47 19 -69.5t52 -22.5q25 0 50.5 16.5t47 49t35 83t13.5 117.5q0 45 -20.5 69t-51.5 24q-25 0 -50.5 -16.5t-47 -49.5t-34.5 -83t-13 -118z" />
<glyph unicode="&#x26;" horiz-adv-x="1345" d="M90 346q0 133 78 247t260 206q-29 55 -45 109.5t-16 105.5q0 82 28.5 152.5t86 122.5t140.5 83t193 31q61 0 117.5 -12.5t108 -44t93.5 -84t72 -132.5l-248 -129q-16 41 -33.5 65t-37 36t-39 15t-37.5 3q-53 0 -89 -31.5t-36 -84.5q0 -27 11.5 -59t29.5 -62l215 -344 l223 194l183 -209l-258 -223l188 -301h-354l-68 106q-98 -72 -181 -105.5t-179 -33.5q-100 0 -176 32t-127.5 84t-77 120.5t-25.5 142.5zM414 397q0 -53 38.5 -94t104.5 -41q41 0 76 18.5t80 55.5l-156 250q-55 -29 -99 -73t-44 -116z" />
<glyph unicode="'" horiz-adv-x="471" d="M166 821l106 545h301l-106 -545h-301z" />
<glyph unicode="(" horiz-adv-x="690" d="M147 270q0 217 49.5 414t114 353.5t127 263t90.5 145.5h338q-84 -121 -155.5 -259t-123.5 -288.5t-81 -309.5t-29 -319q0 -98 9.5 -177t19.5 -138t20.5 -96t14.5 -49h-328q-6 18 -17.5 59t-22.5 101.5t-18.5 136t-7.5 163.5z" />
<glyph unicode=")" horiz-adv-x="690" d="M-39 -190q84 119 155.5 258t124 289.5t81 309t28.5 318.5q0 98 -9 177t-19.5 138.5t-21.5 96.5t-13 49h327q6 -18 17.5 -59t23 -101.5t18.5 -136.5t7 -164q0 -217 -49 -413.5t-113.5 -353.5t-127 -263.5t-91.5 -144.5h-338z" />
<glyph unicode="*" horiz-adv-x="960" d="M215 985l211 84l-211 84l133 229l170 -129l-31 209h267l-27 -213l170 127l133 -229l-211 -74l211 -82l-133 -229l-172 129l29 -215h-267l33 209l-172 -129z" />
<glyph unicode="+" d="M215 516l53 262h258l54 283h266l-53 -283h260l-54 -262h-260l-53 -278h-266l53 278h-258z" />
<glyph unicode="," horiz-adv-x="585" d="M4 -293l178 293h-123l70 367h369l-70 -367l-221 -293h-203z" />
<glyph unicode="-" horiz-adv-x="888" d="M147 412l64 323h647l-63 -323h-648z" />
<glyph unicode="." horiz-adv-x="577" d="M59 0l70 365h358l-69 -365h-359z" />
<glyph unicode="/" horiz-adv-x="929" d="M-25 -33l805 1436h338l-801 -1436h-342z" />
<glyph unicode="0" horiz-adv-x="1155" d="M113 434q0 80 13 176.5t44 195.5t80 193.5t119.5 167t164 116.5t214.5 44q98 0 177 -33.5t134 -95t83.5 -147.5t28.5 -191q0 -86 -13 -186.5t-45 -199.5t-81 -190t-121.5 -162t-168 -113t-218.5 -42q-96 0 -172 34t-129 95.5t-81.5 147.5t-28.5 190zM438 473 q0 -104 35 -151.5t94 -47.5q72 0 124 55.5t87 137.5t52.5 177t17.5 177q0 104 -35 151.5t-94 47.5q-74 0 -126 -55.5t-87 -137.5t-51.5 -177t-16.5 -177z" />
<glyph unicode="1" horiz-adv-x="952" d="M109 0l53 287h221l123 626l-201 -106l-119 246l435 237h280l-196 -1003h215l-54 -287h-757z" />
<glyph unicode="2" horiz-adv-x="1062" d="M33 0l30 164q16 88 52.5 159.5t87.5 131t118.5 110.5t149.5 101q53 33 104.5 63.5t91.5 61t64.5 64.5t24.5 75q0 51 -35 77.5t-90 26.5q-66 0 -126.5 -32.5t-123.5 -106.5l-219 174q43 55 94 103.5t114.5 82t141.5 53t174 19.5t173 -28.5t129 -75.5t80 -106.5t28 -123.5 q0 -80 -16.5 -140t-53.5 -110.5t-95.5 -96.5t-142.5 -97q-41 -25 -92 -54.5t-98 -61.5t-86 -66.5t-57 -69.5h506l-58 -297h-870z" />
<glyph unicode="3" horiz-adv-x="1093" d="M14 143l181 238q78 -66 143 -95.5t141 -29.5q94 0 147.5 49t53.5 127q0 29 -9 57.5t-27.5 51t-48.5 36t-71 13.5q-43 0 -72.5 -6t-58.5 -17l-71 133l364 306h-448l55 284h827l-47 -237l-317 -279q117 -37 187.5 -129t70.5 -221q0 -98 -36 -182t-103.5 -144.5t-164 -95.5 t-214.5 -35q-162 0 -277 46t-205 130z" />
<glyph unicode="4" horiz-adv-x="1132" d="M53 229l49 240l691 821h337l-153 -794h123l-53 -267h-123l-43 -229h-306l43 229h-565zM416 496h256l76 391z" />
<glyph unicode="5" horiz-adv-x="1026" d="M0 129l178 236q72 -59 131.5 -83t130.5 -24q86 0 142.5 48t56.5 151q0 82 -50 114.5t-122 32.5q-94 0 -166 -41l-119 109l201 618h698l-57 -284h-471l-53 -183q31 4 59.5 7.5t56.5 3.5q84 0 151 -29t112 -78t68.5 -116.5t23.5 -145.5q0 -109 -37 -200t-104.5 -157.5 t-162.5 -103.5t-214 -37q-158 0 -262.5 42t-190.5 120z" />
<glyph unicode="6" horiz-adv-x="1107" d="M129 446q0 98 18.5 202t55.5 201t94 184t133 152.5t173 103.5t216 38q113 0 200 -29.5t152 -87.5l-163 -243q-53 39 -97.5 55t-111.5 16q-90 0 -169 -60t-114 -167q49 20 100.5 28.5t102.5 8.5q80 0 145.5 -30t112.5 -81t72.5 -118.5t25.5 -141.5q0 -127 -40 -222 t-107.5 -159.5t-158.5 -96.5t-191 -32q-117 0 -201 39t-139.5 105.5t-82 152.5t-26.5 182zM430 430q0 -35 9.5 -67.5t29.5 -58t51 -41t72 -15.5q33 0 65.5 11t58 35.5t42 62.5t16.5 94q0 66 -41 108.5t-106 42.5q-59 0 -105.5 -18t-75.5 -45q-16 -55 -16 -109z" />
<glyph unicode="7" horiz-adv-x="999" d="M96 0q57 119 136 261t163 281.5t165 261.5t145 200h-529l57 286h883l-53 -270q-109 -143 -196 -275.5t-160.5 -257.5t-136 -245.5t-124.5 -241.5h-350z" />
<glyph unicode="8" horiz-adv-x="1183" d="M92 336q0 76 22.5 132t62.5 101t94.5 80t115.5 68q-59 63 -79.5 118.5t-20.5 125.5t31.5 135t92 116.5t148.5 83t201 31.5q119 0 199.5 -30.5t132 -76.5t74 -101.5t22.5 -106.5q0 -111 -59.5 -190t-180.5 -144q76 -53 118 -121t42 -172q0 -78 -33 -151.5t-100.5 -133 t-168.5 -95.5t-239 -36q-129 0 -219 33t-147.5 86t-83 117.5t-25.5 130.5zM442 362q0 -47 40 -88t110 -41q33 0 65.5 8.5t60 27t45 49t17.5 77.5q0 45 -29.5 89t-113.5 81q-37 -10 -72 -26.5t-62.5 -41t-44 -57t-16.5 -78.5zM578 942q0 -43 30.5 -82t98.5 -72 q33 8 65.5 22.5t57 36t40 52.5t15.5 74q0 41 -36 79t-99 38q-29 0 -60 -7.5t-55.5 -25t-40.5 -45t-16 -70.5z" />
<glyph unicode="9" horiz-adv-x="1095" d="M63 82l144 250q59 -43 114.5 -59.5t127.5 -16.5q100 0 162.5 60.5t84.5 168.5q-96 -39 -192 -39q-80 0 -145.5 28t-111.5 76t-71.5 113.5t-25.5 139.5q0 127 38.5 224t106 163.5t157 101.5t191.5 35q117 0 201 -39t138 -105.5t79.5 -153.5t25.5 -181q0 -98 -13 -201.5 t-44 -201t-81 -184.5t-123.5 -152.5t-172 -103.5t-225.5 -38q-113 0 -200 28t-165 87zM451 844q0 -66 39.5 -106t105.5 -40q55 0 102 16.5t76 43.5q8 27 12.5 52.5t4.5 53.5q0 35 -10.5 68t-30 58.5t-50 41t-71.5 15.5q-33 0 -65 -11.5t-57.5 -36t-40.5 -62.5t-15 -93z" />
<glyph unicode=":" horiz-adv-x="577" d="M59 0l70 365h358l-69 -365h-359zM176 598l70 365h358l-69 -365h-359z" />
<glyph unicode=";" horiz-adv-x="587" d="M4 -293l178 293h-123l70 367h369l-70 -367l-221 -293h-203zM176 598l70 365h358l-69 -365h-359z" />
<glyph unicode="&#x3c;" d="M215 545l39 198l750 375l110 -239l-524 -238l420 -240l-160 -243z" />
<glyph unicode="=" d="M184 297l53 266h785l-54 -266h-784zM258 700l53 266h785l-54 -266h-784z" />
<glyph unicode="&#x3e;" d="M166 416l524 237l-420 240l158 237l635 -387l-39 -198l-750 -375z" />
<glyph unicode="?" horiz-adv-x="1071" d="M186 1192q109 111 231 162t273 51q86 0 161 -22.5t131 -66.5t89 -110.5t33 -154.5q0 -92 -38 -167t-112 -136q-41 -35 -83 -65t-76.5 -60.5t-60 -64.5t-34.5 -75l-4 -22h-309l14 71q20 104 79 168t120.5 110t108.5 85t47 96q0 53 -35 74.5t-90 21.5q-74 0 -137.5 -28.5 t-116.5 -81.5zM285 0l67 342h336l-67 -342h-336z" />
<glyph unicode="@" horiz-adv-x="1904" d="M113 524q0 174 63.5 334t189.5 281t313 192.5t437 71.5q172 0 315.5 -53.5t248 -146.5t163 -222t58.5 -281q0 -139 -37 -270t-109 -233.5t-178.5 -165t-245.5 -62.5q-172 0 -241 121q-53 -59 -119 -91t-158 -32q-57 0 -109.5 19.5t-91.5 55.5t-62.5 89t-23.5 121 q0 158 122 254t345 96q47 0 85 -3t73 -7l4 20q2 8 2 23q0 55 -45 81.5t-111 26.5q-86 0 -144 -19t-114 -50l-110 198q72 49 187.5 85t250.5 36q86 0 157.5 -22.5t124 -67.5t81 -111.5t28.5 -152.5q0 -43 -10 -100l-55 -279q-2 -10 -3 -17t-1 -14q0 -43 30 -43q27 0 60 27 q96 78 139 194.5t43 282.5q0 113 -40 206t-113.5 159.5t-179 102.5t-238.5 36q-188 0 -328.5 -53.5t-236 -144.5t-142.5 -210.5t-47 -253.5q0 -117 28.5 -234.5t96.5 -229.5l-191 -111q-49 80 -79.5 152.5t-49 142.5t-25.5 136.5t-7 135.5zM844 303q0 -92 88 -92 q25 0 50.5 6t50 21.5t43 42t26.5 69.5l12 64q-35 8 -92 8q-86 0 -132 -31t-46 -88z" />
<glyph unicode="A" horiz-adv-x="1392" d="M-29 0l746 1366h399l199 -1366h-359l-30 287h-439l-141 -287h-375zM608 545h297l-51 504z" />
<glyph unicode="B" horiz-adv-x="1253" d="M72 0l264 1366h516q121 0 198.5 -30.5t124 -78t64.5 -105.5t18 -116q0 -68 -22.5 -121t-58 -91t-77.5 -62.5t-81 -36.5q31 -10 66.5 -33.5t66.5 -60.5t51.5 -85t20.5 -108q0 -121 -41 -203.5t-118 -135t-187.5 -76t-251.5 -23.5h-553zM461 252h203q41 0 77.5 10 t65.5 32.5t46 60.5t17 91q0 59 -32.5 99.5t-116.5 40.5h-197zM569 813h152q74 0 130 40t56 136q0 53 -29.5 88t-103.5 35h-147z" />
<glyph unicode="C" horiz-adv-x="1361" d="M147 575q0 168 57.5 318.5t162 264.5t248 180.5t315.5 66.5q221 0 362.5 -97.5t200.5 -265.5l-289 -149q-47 98 -113.5 140t-177.5 42q-94 0 -168.5 -40t-127 -104.5t-80 -149.5t-27.5 -173q0 -61 18.5 -117.5t54 -99.5t89 -68.5t123.5 -25.5q109 0 186.5 45t153.5 133 l221 -231q-117 -125 -258.5 -201t-335.5 -76q-135 0 -248 42t-193.5 121t-127 191.5t-46.5 253.5z" />
<glyph unicode="D" horiz-adv-x="1429" d="M72 0l264 1366h493q129 0 242 -39t196 -110.5t131 -175t48 -234.5q0 -176 -56.5 -324.5t-161 -256t-254 -167t-335.5 -59.5h-567zM481 315h205q94 0 168 36t125 97.5t78.5 143.5t27.5 174q0 135 -72.5 211t-213.5 76h-176z" />
<glyph unicode="E" d="M72 0l264 1366h936l-62 -309h-587l-41 -217h483l-57 -291h-484l-45 -240h631l-59 -309h-979z" />
<glyph unicode="F" horiz-adv-x="1071" d="M72 0l264 1366h913l-61 -313h-565l-52 -271h439l-58 -295h-438l-94 -487h-348z" />
<glyph unicode="G" horiz-adv-x="1437" d="M145 569q0 172 59.5 325t164 266.5t246 179t305.5 65.5q207 0 339 -87t199 -241l-282 -157q-47 86 -109.5 120.5t-165.5 34.5q-90 0 -162.5 -40t-124 -104.5t-79 -148.5t-27.5 -172q0 -61 16.5 -120.5t50 -104.5t86 -72.5t121.5 -27.5q90 0 147.5 13t117.5 52l28 158 h-231l55 268h539l-125 -633q-106 -80 -248.5 -128t-302.5 -48q-135 0 -248 42t-194.5 121t-128 189.5t-46.5 249.5z" />
<glyph unicode="H" horiz-adv-x="1423" d="M72 0l264 1366h348l-96 -504h483l96 504h349l-265 -1366h-348l103 539h-484l-102 -539h-348z" />
<glyph unicode="I" horiz-adv-x="591" d="M72 0l264 1366h348l-264 -1366h-348z" />
<glyph unicode="J" horiz-adv-x="1067" d="M10 164l213 227q49 -59 104.5 -87t116.5 -28q82 0 128 46.5t67 148.5l174 895h346l-184 -956q-86 -446 -506 -447q-141 0 -254 48t-205 153z" />
<glyph unicode="K" horiz-adv-x="1359" d="M72 0l264 1366h348l-98 -512l495 512h406l-543 -551l330 -815h-400l-221 567l-151 -147l-82 -420h-348z" />
<glyph unicode="L" horiz-adv-x="1120" d="M72 0l264 1366h348l-205 -1055h606l-59 -311h-954z" />
<glyph unicode="M" horiz-adv-x="1609" d="M41 0l326 1366h333l177 -618l446 618h342l-205 -1366h-352l125 801l-338 -467h-186l-152 467l-182 -801h-334z" />
<glyph unicode="N" horiz-adv-x="1406" d="M72 0l264 1366h295l375 -778l149 778h344l-264 -1366h-277l-389 801l-153 -801h-344z" />
<glyph unicode="O" horiz-adv-x="1521" d="M147 563q0 166 58.5 318.5t163 269.5t250 185.5t319.5 68.5q131 0 242.5 -42t193.5 -121t127 -189.5t45 -245.5q0 -170 -54 -321.5t-156.5 -267.5t-249 -183.5t-330.5 -67.5q-129 0 -241 42t-193.5 120t-128 188.5t-46.5 245.5zM508 608q0 -66 17.5 -122t52 -98t87 -66.5 t121.5 -24.5q92 0 166 40t126 104.5t80 148.5t28 172q0 63 -17.5 120.5t-52.5 100.5t-87 67.5t-122 24.5q-92 0 -165.5 -40t-126 -104.5t-80 -149.5t-27.5 -173z" />
<glyph unicode="P" horiz-adv-x="1181" d="M72 0l264 1366h530q88 0 161 -29.5t126 -83t83 -126t30 -158.5q0 -129 -47.5 -225.5t-125 -160t-180 -94t-215.5 -30.5h-196l-90 -459h-340zM555 737h154q43 0 79.5 11.5t65.5 35t45 62.5t16 94q0 66 -38.5 104.5t-108.5 38.5h-145z" />
<glyph unicode="Q" horiz-adv-x="1521" d="M147 563q0 166 58.5 318.5t163 269.5t250 185.5t319.5 68.5q131 0 242.5 -42t193.5 -121t127 -189.5t45 -245.5q0 -205 -76.5 -380t-220.5 -292l105 -174l-201 -117l-106 174q-66 -25 -138.5 -38t-152.5 -13q-129 0 -241 42t-193.5 120t-128 188.5t-46.5 245.5zM508 608 q0 -66 17.5 -122t52 -98t87 -66.5t121.5 -24.5q23 0 44.5 2t43.5 8l-110 185l201 116l104 -176q55 66 86 152t31 178q0 63 -17.5 120.5t-52.5 100.5t-87 67.5t-122 24.5q-92 0 -165.5 -40t-126 -104.5t-80 -149.5t-27.5 -173z" />
<glyph unicode="R" horiz-adv-x="1241" d="M72 0l264 1366h526q86 0 159 -29.5t125 -82t81.5 -125t29.5 -156.5q0 -88 -23.5 -160t-64.5 -128t-94 -97t-114 -66l196 -522h-362l-164 469h-129l-90 -469h-340zM555 743h154q41 0 78.5 10.5t65.5 34t44 61.5t16 93q0 66 -38.5 102.5t-106.5 36.5h-147z" />
<glyph unicode="S" horiz-adv-x="1167" d="M10 172l221 252q72 -68 156 -106.5t182 -38.5q90 0 129 33.5t39 78.5q0 27 -7 48.5t-28.5 42t-62.5 42t-107 47.5q-158 63 -243.5 155.5t-85.5 231.5q0 98 39 180.5t110.5 140.5t173 91t226.5 33q147 0 277 -52.5t214 -150.5l-219 -207q-66 72 -137.5 96.5t-130.5 24.5 q-84 0 -132.5 -30.5t-48.5 -82.5q0 -25 8.5 -44t33 -39.5t68.5 -43t116 -51.5q182 -74 257 -173t75 -224q0 -113 -42 -199t-117 -143t-177.5 -87t-221.5 -30q-164 0 -313 50.5t-252 154.5z" />
<glyph unicode="T" horiz-adv-x="1228" d="M184 1055l60 311h1155l-60 -311h-399l-205 -1055h-352l205 1055h-404z" />
<glyph unicode="U" horiz-adv-x="1372" d="M150 414q0 29 4 57.5t10 58.5l162 836h348l-158 -801q-4 -23 -6 -44t-2 -40q0 -98 52 -140t138 -42q57 0 99.5 18.5t71 51t47 79t28.5 101.5l160 817h352l-164 -848q-31 -160 -93 -266.5t-147 -169t-186.5 -89t-210.5 -26.5q-119 0 -212 33t-158.5 92.5t-100 141 t-34.5 180.5z" />
<glyph unicode="V" horiz-adv-x="1368" d="M233 1366h367l107 -956l467 956h374l-737 -1366h-367z" />
<glyph unicode="W" horiz-adv-x="1839" d="M225 1366h355l-9 -915l377 882h328l37 -882l334 915h368l-590 -1366h-370l-39 864l-373 -864h-364z" />
<glyph unicode="X" horiz-adv-x="1339" d="M-29 0l568 719l-303 647h391l164 -381l284 381h387l-522 -657l350 -709h-405l-193 430l-330 -430h-391z" />
<glyph unicode="Y" horiz-adv-x="1271" d="M215 1366h369l157 -502l353 502h387l-617 -809l-106 -557h-348l106 553z" />
<glyph unicode="Z" horiz-adv-x="1232" d="M12 0l54 279l792 776h-616l59 311h1061l-53 -276l-785 -779h654l-60 -311h-1106z" />
<glyph unicode="[" horiz-adv-x="731" d="M51 -190l320 1636h526l-51 -258h-234l-215 -1116h234l-53 -262h-527z" />
<glyph unicode="\" horiz-adv-x="933" d="M266 1403h316l243 -1436h-321z" />
<glyph unicode="]" horiz-adv-x="731" d="M-27 -190l54 262h233l215 1116h-233l51 258h526l-319 -1636h-527z" />
<glyph unicode="^" horiz-adv-x="1122" d="M137 600l502 768h270l205 -768h-328l-84 391l-231 -391h-334z" />
<glyph unicode="_" horiz-adv-x="987" d="M-88 -246l22 113h981l-22 -113h-981z" />
<glyph unicode="`" horiz-adv-x="868" d="M451 1397h313l43 -291h-229z" />
<glyph unicode="a" horiz-adv-x="1044" d="M57 236q0 82 33 150.5t95.5 118.5t151.5 77.5t200 27.5q47 0 84.5 -3t72.5 -7l2 12q2 8 2 23q0 55 -45 81.5t-110 26.5q-86 0 -144.5 -19t-113.5 -50l-111 198q72 49 187.5 85t250.5 36q86 0 160 -21.5t128 -65.5t85 -109.5t31 -151.5q0 -23 -4 -51.5t-8 -54.5l-105 -539 h-303l10 90q-53 -59 -123.5 -91t-146.5 -32q-59 0 -109.5 18.5t-88.5 54.5t-59.5 85t-21.5 111zM385 303q0 -92 88 -92q25 0 50.5 6t50 21.5t43 42t26.5 69.5l12 64q-35 8 -92 8q-86 0 -132 -31t-46 -88z" />
<glyph unicode="b" horiz-adv-x="1134" d="M61 66l252 1300h332l-94 -485q55 55 114.5 77.5t137.5 22.5q63 0 122.5 -26.5t103.5 -78t70.5 -124t26.5 -164.5q0 -150 -52 -264.5t-137 -193.5t-194.5 -119t-224.5 -40q-119 0 -234.5 22.5t-222.5 72.5zM430 256q25 -10 50 -13t50 -3q117 0 186.5 86t69.5 223 q0 68 -33.5 106.5t-99.5 38.5q-70 0 -113.5 -49t-60.5 -135z" />
<glyph unicode="c" horiz-adv-x="1007" d="M94 393q0 123 42 232.5t118 191.5t181.5 130t232.5 48q150 0 243 -72.5t140 -195.5l-252 -127q-29 51 -59.5 79t-96.5 28q-43 0 -81 -19.5t-67.5 -55.5t-47 -87t-17.5 -115q0 -88 46 -131t104 -43q57 0 106 27.5t88 66.5l172 -213q-80 -74 -178 -122t-248 -48 q-92 0 -170 32t-135 88t-89 134t-32 172z" />
<glyph unicode="d" horiz-adv-x="1144" d="M94 371q0 154 49.5 268.5t130 191t185 114.5t213.5 38q49 0 98 -8t82 -21l76 412h329l-264 -1366h-321l10 88q-66 -72 -126 -93.5t-130 -21.5q-63 0 -123.5 27t-106.5 77t-74 123.5t-28 170.5zM434 424q0 -76 32 -121t101 -45q68 0 117 50t66 136l47 250 q-27 10 -58.5 14.5t-56.5 4.5q-49 0 -94 -20.5t-79 -57.5t-54.5 -90t-20.5 -121z" />
<glyph unicode="e" horiz-adv-x="1067" d="M94 410q0 133 42 241.5t116 185t174 117.5t217 41q100 0 176 -34.5t127 -92t77 -131t26 -151.5q0 -53 -7.5 -102.5t-19.5 -100.5h-608q14 -88 70.5 -122t133.5 -34q66 0 133.5 19.5t120.5 48.5l101 -219q-94 -53 -191.5 -81t-212.5 -28q-90 0 -175 23.5t-151.5 76 t-107.5 136.5t-41 207zM424 580h326q4 10 4 19v17q0 61 -40.5 93t-97.5 32q-66 0 -118 -37.5t-74 -123.5z" />
<glyph unicode="f" horiz-adv-x="739" d="M119 702l49 261h143l8 45q37 190 138.5 292.5t308.5 102.5q160 0 293 -111l-156 -211q-25 20 -53.5 32.5t-65.5 12.5q-51 0 -86.5 -30.5t-46.5 -89.5l-8 -43h201l-49 -261h-201l-137 -702h-332l137 702h-143z" />
<glyph unicode="g" horiz-adv-x="1132" d="M33 -324l127 234q113 -76 252 -76q102 0 163.5 49t83.5 162l9 43q-57 -41 -114.5 -59.5t-135.5 -18.5q-86 0 -148.5 34t-101.5 89t-57.5 124t-18.5 138q0 127 44 234.5t126 186.5t196.5 123t254.5 44q51 0 109.5 -7t116.5 -19.5t113.5 -30t100.5 -39.5l-158 -809 q-53 -274 -202.5 -393t-382.5 -119q-100 0 -202 27.5t-175 82.5zM424 418q0 -63 31.5 -104.5t101.5 -41.5q72 0 119 50.5t63 136.5l45 237q-27 10 -53 15.5t-51 5.5q-111 0 -183.5 -81t-72.5 -218z" />
<glyph unicode="h" horiz-adv-x="1134" d="M49 0l266 1366h330l-98 -504q74 74 145.5 99.5t155.5 25.5q51 0 99 -19.5t85 -56.5t58.5 -90t21.5 -121q0 -25 -2 -50t-6 -54l-117 -596h-332l101 524q6 27 6 54q0 47 -23.5 78.5t-81.5 31.5q-78 0 -120.5 -51t-57.5 -123l-98 -514h-332z" />
<glyph unicode="i" horiz-adv-x="544" d="M55 0l187 963h331l-186 -963h-332zM250 1094l53 272h361l-54 -272h-360z" />
<glyph unicode="j" horiz-adv-x="583" d="M-328 -319l140 245q70 -43 135 -43q63 0 101 39t54 129l179 912h333l-174 -889q-23 -111 -57.5 -200t-88.5 -152.5t-132 -97.5t-182 -34q-94 0 -170 21.5t-138 69.5zM291 1094l53 272h358l-53 -272h-358z" />
<glyph unicode="k" horiz-adv-x="1085" d="M49 0l264 1366h332l-133 -680l287 277h375l-394 -371l244 -592h-350l-150 381l-86 -84l-57 -297h-332z" />
<glyph unicode="l" horiz-adv-x="532" d="M49 0l264 1366h332l-264 -1366h-332z" />
<glyph unicode="m" horiz-adv-x="1724" d="M49 0l187 963h321l-10 -101q74 74 145.5 99.5t155.5 25.5q78 0 129 -33.5t86 -99.5q72 63 146.5 98t183.5 35q152 0 230.5 -85t78.5 -216q0 -23 -2 -45.5t-6 -44.5l-117 -596h-332l101 524q6 27 6 54q0 47 -23.5 78.5t-81.5 31.5q-80 0 -122 -51t-56 -123l-98 -514h-316 l101 524q6 27 6 54q0 47 -23.5 78.5t-81.5 31.5q-80 0 -121.5 -51t-56.5 -123l-98 -514h-332z" />
<glyph unicode="n" horiz-adv-x="1134" d="M49 0l187 963h321l-10 -101q74 74 147.5 99.5t157.5 25.5q55 0 102 -19.5t82 -56.5t55.5 -90t20.5 -121q0 -25 -2 -50t-6 -54l-117 -596h-332l101 524q6 27 6 54q0 47 -23.5 78.5t-81.5 31.5q-78 0 -120.5 -51t-57.5 -123l-98 -514h-332z" />
<glyph unicode="o" horiz-adv-x="1114" d="M94 399q0 129 47 237.5t126 188.5t184.5 125t222.5 45q88 0 167 -31.5t137 -88t93 -136.5t35 -176q0 -127 -43 -235.5t-120 -188.5t-183.5 -126t-231.5 -46q-90 0 -168.5 32t-137 88t-93.5 136t-35 176zM412 442q0 -78 39.5 -130t119.5 -52q41 0 81 19.5t71 54.5t49.5 82 t18.5 104q0 78 -40 130t-120 52q-41 0 -81 -19t-70.5 -54t-49 -82t-18.5 -105z" />
<glyph unicode="p" horiz-adv-x="1140" d="M-31 -410l267 1373h321l-10 -101q59 68 125.5 93.5t136.5 25.5q63 0 122.5 -28.5t103.5 -81t71 -126t27 -165.5q0 -154 -50.5 -268.5t-132.5 -189.5t-187.5 -113t-215.5 -38q-35 0 -78 4.5t-92 22.5l-78 -408h-330zM430 256q27 -10 54.5 -12t52.5 -2q111 0 184.5 83 t73.5 224q0 68 -37 105.5t-96 37.5q-66 0 -115 -43t-66 -129z" />
<glyph unicode="q" horiz-adv-x="1144" d="M94 371q0 154 51.5 268.5t137.5 191t199.5 114.5t240.5 38q51 0 109.5 -7t117 -19.5t113.5 -30t100 -39.5l-250 -1297h-331l90 465q-55 -45 -112.5 -60t-139.5 -15q-70 0 -129.5 27.5t-103.5 77.5t-68.5 123t-24.5 163zM434 424q0 -76 32 -121t101 -45q68 0 117 50 t66 136l47 250q-27 10 -58.5 14.5t-56.5 4.5q-49 0 -94 -20.5t-79 -57.5t-54.5 -90t-20.5 -121z" />
<glyph unicode="r" horiz-adv-x="808" d="M49 0l187 963h321l-14 -121q109 139 260 139q70 0 127 -23l-101 -292q-53 18 -106 18q-102 0 -169 -67.5t-89 -184.5l-84 -432h-332z" />
<glyph unicode="s" horiz-adv-x="935" d="M14 111l148 213q68 -51 129 -76t147 -25q111 0 111 62q0 18 -7 31.5t-26.5 25.5t-54.5 26.5t-88 39.5q-84 35 -143.5 97t-59.5 171q0 82 33 142.5t89 99t130 58t156 19.5q104 0 199 -32.5t181 -106.5l-161 -190q-111 86 -219 86q-94 0 -95 -58q0 -18 5.5 -29.5 t24.5 -25.5t57 -31.5t102 -48.5q198 -94 198 -260q0 -88 -32.5 -150.5t-88 -102.5t-130 -59.5t-158.5 -19.5q-129 0 -239.5 33t-207.5 111z" />
<glyph unicode="t" horiz-adv-x="839" d="M96 702l49 261h136l51 268h332l-52 -268h228l-49 -261h-228l-69 -346q-2 -10 -3.5 -19t-1.5 -18q0 -41 23 -62t61 -21q41 0 69 11t63 36l126 -207q-78 -59 -164.5 -86t-174.5 -27q-176 0 -256 82t-80 219q0 55 12 121l63 317h-135z" />
<glyph unicode="u" horiz-adv-x="1126" d="M104 262q0 25 2.5 50.5t6.5 54.5l116 596h332l-100 -525q-6 -29 -6 -53q0 -47 21.5 -79t78.5 -32q78 0 120 51.5t56 123.5l98 514h332l-186 -963h-322l11 100q-74 -74 -147 -99.5t-157 -25.5q-55 0 -101 19.5t-81 56.5t-54.5 90.5t-19.5 120.5z" />
<glyph unicode="v" horiz-adv-x="1083" d="M113 963h346l82 -576l282 576h363l-574 -963h-297z" />
<glyph unicode="w" horiz-adv-x="1544" d="M113 963h319l39 -566l270 566h258l58 -566l252 566h338l-508 -963h-287l-64 496l-256 -496h-286z" />
<glyph unicode="x" horiz-adv-x="1073" d="M-41 0l430 494l-244 469h349l118 -248l197 248h362l-415 -476l248 -487h-351l-127 262l-204 -262h-363z" />
<glyph unicode="y" horiz-adv-x="1114" d="M-102 -352l135 239q68 -49 123 -49q51 0 87 32t68 91l31 57l-240 945h359l98 -564l285 564h362l-557 -957q-53 -90 -103 -170t-106.5 -139t-122 -95t-145.5 -36q-78 0 -138.5 12t-135.5 70z" />
<glyph unicode="z" horiz-adv-x="1007" d="M20 0l41 213l533 481h-416l53 269h836l-43 -220l-520 -481h434l-51 -262h-867z" />
<glyph unicode="{" horiz-adv-x="630" d="M104 537l37 184q76 0 113 43t55 106l92 328q25 92 58 150.5t88 97.5h280q-43 -37 -85 -105.5t-66 -160.5l-98 -359q-10 -37 -33 -68.5t-52.5 -56t-61.5 -42t-60 -25.5q47 -14 89 -62.5t42 -132.5v-19t-2 -20l-41 -358q-2 -10 -2 -20.5v-20.5q0 -53 14 -104.5t37 -81.5 h-277q-53 53 -53 161q0 39 6 88l35 328q2 8 2 16.5v16.5q0 51 -25.5 84t-91.5 33z" />
<glyph unicode="|" horiz-adv-x="561" d="M14 -336l396 2042h301l-396 -2042h-301z" />
<glyph unicode="}" horiz-adv-x="630" d="M-57 -190q43 37 85 105.5t66 160.5l99 358q10 37 32.5 69t52 56.5t61.5 41.5t60 26q-47 14 -89 62t-42 132v19.5t2 19.5l41 359q2 10 2 20v21q0 53 -14 104t-37 82h277q53 -53 53 -162q0 -39 -6 -88l-35 -328q-2 -8 -2 -16v-16q0 -51 25.5 -84t91.5 -33l-37 -184 q-76 0 -113 -43t-55 -107l-92 -328q-25 -92 -57.5 -150.5t-88.5 -96.5h-280z" />
<glyph unicode="~" horiz-adv-x="1005" d="M119 653q68 78 141.5 119t155.5 41q43 0 78.5 -12.5t70.5 -25.5t70 -25.5t74 -12.5q53 0 98 23.5t86 68.5l123 -243q-68 -78 -141.5 -120t-155.5 -42q-41 0 -77 12.5t-71.5 26.5t-70.5 26.5t-74 12.5q-53 0 -98 -23.5t-86 -68.5z" />
<glyph unicode="&#xa1;" horiz-adv-x="608" d="M-10 -401l194 903h326l-158 -903h-362zM201 616l67 349h336l-67 -349h-336z" />
<glyph unicode="&#xa2;" d="M203 549q0 113 34.5 214t99 181t154 132t199.5 69l37 184h203l-39 -192q100 -25 165.5 -91.5t102.5 -162.5l-252 -127q-29 51 -59.5 78.5t-95.5 27.5q-43 0 -81 -19.5t-68 -55t-47 -87t-17 -114.5q0 -88 46 -131t103 -43t106.5 27.5t88.5 66.5l172 -213 q-72 -66 -155 -112t-204 -56l-32 -164h-203l35 180q-133 39 -213 146.5t-80 261.5z" />
<glyph unicode="&#xa3;" d="M143 551l35 197h137l33 165q20 111 66.5 190t111 128t146.5 72.5t176 23.5q143 0 239.5 -59.5t161.5 -175.5l-250 -172q-33 51 -67.5 70.5t-87.5 19.5q-76 0 -115 -39t-55 -117l-21 -106h344l-34 -197h-349l-47 -244h514l-55 -307h-856l106 551h-133z" />
<glyph unicode="&#xa4;" d="M133 326l137 143q-47 82 -47 186q0 92 41 174l-131 138l182 186l136 -141q37 16 76.5 26.5t86.5 10.5q104 0 191 -50l147 154l185 -186l-156 -164q12 -35 20.5 -71t8.5 -77q0 -43 -8.5 -83t-24.5 -78l160 -168l-185 -183l-157 160q-82 -41 -181 -41q-84 0 -151 31 l-148 -150zM475 655q0 -59 40 -101t99 -42t100.5 42t41.5 101q0 55 -41 97.5t-101 42.5q-59 0 -99 -42t-40 -98z" />
<glyph unicode="&#xa5;" d="M117 205l35 184h241l27 131h-242l35 185h152l-160 585h332l108 -512l297 512h352l-395 -585h152l-35 -185h-240l-26 -131h239l-35 -184h-239l-39 -205h-357l39 205h-241z" />
<glyph unicode="&#xa6;" horiz-adv-x="561" d="M14 -336l152 776h301l-152 -776h-301zM260 930l150 776h301l-150 -776h-301z" />
<glyph unicode="&#xa7;" horiz-adv-x="962" d="M-10 -262l215 209q43 -45 73.5 -59.5t71.5 -14.5t77 27.5t36 74.5q0 23 -13.5 50.5t-41.5 50.5l-322 254l213 248l348 -265q86 -66 123 -145.5t37 -163.5t-28.5 -163t-86 -140t-145.5 -98t-207 -37q-111 0 -194 41t-156 131zM233 965q0 82 29 160.5t86.5 140t145.5 99.5 t206 38q111 0 194 -41t157 -131l-215 -209q-43 45 -74 59.5t-72 14.5t-76.5 -28t-35.5 -75q0 -23 13 -50.5t42 -49.5l321 -254l-213 -248l-348 264q-86 66 -123 146t-37 164z" />
<glyph unicode="&#xa8;" horiz-adv-x="868" d="M276 1128l48 246h258l-47 -246h-259zM672 1128l47 246h258l-47 -246h-258z" />
<glyph unicode="&#xa9;" horiz-adv-x="1583" d="M156 686q0 150 55 280t150.5 226t225.5 152.5t279 56.5q150 0 279 -56.5t224 -152.5t150.5 -226t55.5 -280t-55.5 -280t-151.5 -227t-225 -152.5t-279 -55.5t-278.5 55.5t-224 152.5t-150.5 227.5t-55 279.5zM338 686q0 -117 40 -216t110.5 -172t166.5 -115t209 -42 t209 42t167 115t111 172t40 216q0 115 -40 214t-111 173t-167 116t-207 42q-113 0 -209 -42t-166.5 -116t-111.5 -173t-41 -214zM479 692q0 80 29 151.5t81 125t124.5 84t158.5 30.5q106 0 188.5 -52t135.5 -126l-156 -121q-23 41 -63.5 72t-93.5 31q-86 0 -135.5 -55.5 t-49.5 -141.5q0 -82 49.5 -137t135.5 -55q59 0 99 32.5t58 67.5l156 -125q-53 -72 -135 -124t-189 -52q-88 0 -160.5 29.5t-123.5 83t-80 126t-29 156.5z" />
<glyph unicode="&#xaa;" horiz-adv-x="770" d="M186 829q0 106 85 169t233 63q31 0 57.5 -2t48.5 -6q4 10 4 20v14q0 37 -29.5 54.5t-74.5 17.5q-57 0 -96 -12t-76 -35l-74 133q47 35 124 58.5t169 23.5q117 0 193.5 -58.5t76.5 -174.5q0 -16 -2 -35t-6 -37l-69 -363h-203l6 56q-35 -41 -83 -59.5t-97 -18.5 q-82 0 -134.5 52t-52.5 140zM406 864q0 -63 59 -63q31 0 66.5 19.5t46.5 76.5l6 33q-29 6 -62 6q-117 0 -116 -72z" />
<glyph unicode="&#xab;" horiz-adv-x="1220" d="M172 506l281 397h329l-286 -397l122 -422h-321zM655 506l281 397h329l-286 -397l122 -422h-321z" />
<glyph unicode="&#xac;" d="M209 516l53 262h785l-107 -540h-268l53 278h-516z" />
<glyph unicode="&#xad;" horiz-adv-x="888" d="M147 412l64 323h647l-63 -323h-648z" />
<glyph unicode="&#xae;" horiz-adv-x="1583" d="M156 686q0 150 55 280t150.5 226t225.5 152.5t279 56.5q150 0 279 -56.5t224 -152.5t150.5 -226t55.5 -280t-55.5 -280t-151.5 -227t-225 -152.5t-279 -55.5t-278.5 55.5t-224 152.5t-150.5 227.5t-55 279.5zM338 686q0 -117 40 -216t110.5 -172t166.5 -115t209 -42 t209 42t167 115t111 172t40 216q0 115 -40 214t-111 173t-167 116t-207 42q-113 0 -209 -42t-166.5 -116t-111.5 -173t-41 -214zM580 336v715h303q74 0 126 -21.5t83.5 -54.5t47 -72t15.5 -74q0 -57 -32.5 -112t-86.5 -88l170 -293h-219l-147 258h-64v-258h-196zM776 754 h101q47 0 63 17t16 46q0 31 -18 49.5t-61 18.5h-101v-131z" />
<glyph unicode="&#xaf;" horiz-adv-x="868" d="M270 1122l46 228h561l-45 -228h-562z" />
<glyph unicode="&#xb0;" horiz-adv-x="753" d="M184 1069q0 63 23.5 118.5t64.5 94.5t96.5 61.5t116.5 22.5q63 0 118.5 -22.5t96.5 -61.5t64.5 -94t23.5 -119q0 -63 -23.5 -117.5t-64.5 -93.5t-96 -61.5t-119 -22.5q-61 0 -116.5 22.5t-96.5 61.5t-64.5 93.5t-23.5 117.5zM389 1069q0 -41 26.5 -71.5t69.5 -30.5 q47 0 73 30.5t26 71.5q0 43 -26 74t-73 31q-43 0 -69.5 -31t-26.5 -74z" />
<glyph unicode="&#xb1;" d="M117 0l53 266h254l49 250h-258l53 262h258l54 283h266l-53 -283h260l-54 -262h-260l-49 -250h264l-53 -266h-784z" />
<glyph unicode="&#xb2;" horiz-adv-x="737" d="M160 602l20 113q16 82 70.5 137t138.5 106q61 37 107.5 66t46.5 61q0 43 -49 43q-35 0 -77 -15t-89 -50l-103 147q145 113 307 113q111 0 180.5 -49t69.5 -148q0 -47 -16 -83.5t-44 -67.5t-63.5 -56.5t-72.5 -46.5q-33 -18 -68 -39.5t-59 -37.5h272l-37 -193h-534z" />
<glyph unicode="&#xb3;" horiz-adv-x="737" d="M127 670l104 157q49 -35 95.5 -46t83.5 -11q55 0 80.5 21.5t25.5 48.5q0 35 -23.5 49t-58.5 14q-20 0 -39.5 -5t-34.5 -9l-47 94l201 143h-254l37 179h491l-32 -146l-181 -135q150 -55 150 -190q0 -109 -83 -180.5t-224 -71.5q-51 0 -91 5t-74 15t-64.5 26.5t-61.5 41.5z " />
<glyph unicode="&#xb4;" horiz-adv-x="868" d="M397 1106l144 291h313l-225 -291h-232z" />
<glyph unicode="&#xb5;" horiz-adv-x="1134" d="M-43 -410l266 1373h332l-100 -523q-6 -35 -6 -59q0 -51 24.5 -79t79.5 -28q39 0 68.5 15.5t50 40t34 55.5t19.5 61l100 517h332l-186 -963h-322l10 98q-39 -53 -87 -81.5t-119 -28.5q-20 0 -41 5t-43 13l-80 -416h-332z" />
<glyph unicode="&#xb6;" horiz-adv-x="1142" d="M170 928q0 115 49 197.5t132 136t189.5 79t223.5 25.5h59l-149 -766h-60q-92 0 -174 19.5t-141 59.5t-94 101.5t-35 147.5zM209 -250l145 754q25 -8 56.5 -13.5t65.5 -7.5t68 -3t58 -1h49l-141 -729h-301zM621 -250l313 1616h301l-313 -1616h-301z" />
<glyph unicode="&#xb7;" horiz-adv-x="577" d="M147 463l70 364h358l-69 -364h-359z" />
<glyph unicode="&#xb8;" horiz-adv-x="868" d="M70 -438l57 153q35 -12 68.5 -20t68.5 -8q55 0 86 14t31 47q0 29 -31 36t-59 7q-70 0 -135 -27l53 142q86 25 176 24q39 0 76 -10t64.5 -30.5t45 -50t17.5 -68.5q0 -68 -29 -115t-74 -77t-98 -42t-104 -12q-53 0 -109.5 8t-103.5 29z" />
<glyph unicode="&#xb9;" horiz-adv-x="737" d="M242 1176l278 129h211l-135 -703h-234l91 471q-37 -16 -68 -31.5t-68 -29.5z" />
<glyph unicode="&#xba;" horiz-adv-x="835" d="M219 930q0 86 32 158.5t85 126t123.5 83t148.5 29.5q59 0 111.5 -20.5t92.5 -59.5t62.5 -92t22.5 -117q0 -84 -28.5 -157.5t-81 -127t-123 -84t-154.5 -30.5q-59 0 -111.5 21.5t-92.5 59.5t-63.5 91t-23.5 119zM438 958q0 -47 26 -81.5t75 -34.5q53 0 97 48t44 120 q0 47 -25.5 80.5t-74.5 33.5q-27 0 -52.5 -12t-45 -34.5t-32 -53.5t-12.5 -66z" />
<glyph unicode="&#xbb;" horiz-adv-x="1220" d="M39 84l287 397l-123 422h321l125 -422l-280 -397h-330zM522 84l287 397l-123 422h321l125 -422l-280 -397h-330z" />
<glyph unicode="&#xbc;" horiz-adv-x="1894" d="M183 1176l278 129h211l-135 -703h-234l91 471q-37 -16 -68 -31.5t-68 -29.5zM325 0l1002 1290h291l-994 -1290h-299zM1200 127l33 162l373 416h248l-80 -416h72l-33 -162h-72l-22 -125h-205l22 125h-336zM1417 287h152l39 211z" />
<glyph unicode="&#xbd;" horiz-adv-x="1894" d="M183 1176l278 129h211l-135 -703h-234l91 471q-37 -16 -68 -31.5t-68 -29.5zM284 0l1002 1290h291l-994 -1290h-299zM1235 2l20 113q16 82 70.5 137t138.5 106q61 37 107.5 66t46.5 61q0 43 -49 43q-35 0 -77 -15t-89 -50l-103 147q145 113 307 113q111 0 180.5 -49 t69.5 -148q0 -47 -16 -83.5t-44 -67.5t-63.5 -56.5t-72.5 -46.5q-33 -18 -68 -39.5t-59 -37.5h272l-37 -193h-534z" />
<glyph unicode="&#xbe;" horiz-adv-x="1894" d="M168 670l104 157q49 -35 95.5 -46t83.5 -11q55 0 80.5 21.5t25.5 48.5q0 35 -23.5 49t-58.5 14q-20 0 -39.5 -5t-34.5 -9l-47 94l201 143h-254l37 179h491l-32 -146l-181 -135q150 -55 150 -190q0 -109 -83 -180.5t-224 -71.5q-51 0 -91 5t-74 15t-64.5 26.5t-61.5 41.5z M391 0l1002 1290h291l-994 -1290h-299zM1200 127l33 162l373 416h248l-80 -416h72l-33 -162h-72l-22 -125h-205l22 125h-336zM1417 287h152l39 211z" />
<glyph unicode="&#xbf;" horiz-adv-x="1071" d="M125 -88q0 92 38 167t111 136q41 33 83 63.5t77 61.5t60.5 64.5t33.5 74.5l4 23h310l-15 -72q-20 -104 -78.5 -167.5t-120 -110t-108.5 -85t-47 -96.5q0 -53 35 -74.5t90 -21.5q74 0 137.5 28.5t116.5 82.5l190 -215q-109 -111 -230.5 -162t-272.5 -51q-86 0 -161 22.5 t-131.5 66.5t-89 110.5t-32.5 154.5zM541 621l67 342h336l-67 -342h-336z" />
<glyph unicode="&#xc0;" horiz-adv-x="1392" d="M-29 0l746 1366h399l199 -1366h-359l-30 287h-439l-141 -287h-375zM608 545h297l-51 504zM627 1788h352l91 -320h-252z" />
<glyph unicode="&#xc1;" horiz-adv-x="1392" d="M-29 0l746 1366h399l199 -1366h-359l-30 287h-439l-141 -287h-375zM608 545h297l-51 504zM770 1468l197 320h352l-297 -320h-252z" />
<glyph unicode="&#xc2;" horiz-adv-x="1392" d="M-29 0l746 1366h399l199 -1366h-359l-30 287h-439l-141 -287h-375zM561 1468l291 320h252l166 -320h-262l-62 142l-116 -142h-269zM608 545h297l-51 504z" />
<glyph unicode="&#xc3;" horiz-adv-x="1392" d="M-29 0l746 1366h399l199 -1366h-359l-30 287h-439l-141 -287h-375zM508 1647q53 51 121 91t154 40q41 0 72.5 -13.5t60 -29t57.5 -27.5t63 -12q59 0 97.5 20.5t79.5 55.5l96 -166q-47 -45 -114.5 -88t-158.5 -43q-43 0 -74.5 12t-60 27.5t-57.5 28.5t-64 13 q-59 0 -97 -20t-79 -55zM608 545h297l-51 504z" />
<glyph unicode="&#xc4;" horiz-adv-x="1392" d="M-29 0l746 1366h399l199 -1366h-359l-30 287h-439l-141 -287h-375zM555 1499l50 258h276l-49 -258h-277zM608 545h297l-51 504zM998 1499l49 258h276l-49 -258h-276z" />
<glyph unicode="&#xc5;" horiz-adv-x="1392" d="M-29 0l748 1368q-41 37 -64.5 88.5t-23.5 112.5t22.5 111.5t61.5 87t90 57t110 20.5q57 0 109.5 -20.5t91.5 -57t61.5 -87t22.5 -111.5t-24.5 -112.5t-59.5 -88.5l199 -1368h-359l-30 287h-439l-141 -287h-375zM608 545h297l-51 504zM823 1569q0 -41 25.5 -67.5 t66.5 -26.5t67 26.5t26 67.5t-26 67.5t-67 26.5t-66.5 -26.5t-25.5 -67.5z" />
<glyph unicode="&#xc6;" horiz-adv-x="1900" d="M-49 0l1001 1366h1071l-61 -309h-537l-41 -217h433l-58 -291h-432l-45 -240h580l-60 -309h-909l61 322h-407l-217 -322h-379zM719 586h287l92 473h-37z" />
<glyph unicode="&#xc7;" horiz-adv-x="1361" d="M147 575q0 168 57.5 318.5t162 264.5t248 180.5t315.5 66.5q221 0 362.5 -97.5t200.5 -265.5l-289 -149q-47 98 -113.5 140t-177.5 42q-94 0 -168.5 -40t-127 -104.5t-80 -149.5t-27.5 -173q0 -61 18.5 -117.5t54 -99.5t89 -68.5t123.5 -25.5q109 0 186.5 45t153.5 133 l221 -231q-117 -125 -258.5 -201t-335.5 -76q-135 0 -248 42t-193.5 121t-127 191.5t-46.5 253.5zM420 -438l57 153q35 -12 68.5 -20t68.5 -8q55 0 86 11t31 44q0 29 -31 34t-59 5q-76 0 -141 -27l53 142q43 12 90 18t92 6q39 0 76 -10t66.5 -30.5t47 -49.5t17.5 -68 q0 -66 -30 -111.5t-75 -73.5t-99 -40t-105 -12q-53 0 -109.5 8t-103.5 29z" />
<glyph unicode="&#xc8;" d="M72 0l264 1366h936l-62 -309h-587l-41 -217h483l-57 -291h-484l-45 -240h631l-59 -309h-979zM561 1788h352l91 -320h-252z" />
<glyph unicode="&#xc9;" d="M72 0l264 1366h936l-62 -309h-587l-41 -217h483l-57 -291h-484l-45 -240h631l-59 -309h-979zM660 1468l197 320h352l-297 -320h-252z" />
<glyph unicode="&#xca;" d="M72 0l264 1366h936l-62 -309h-587l-41 -217h483l-57 -291h-484l-45 -240h631l-59 -309h-979zM469 1468l291 320h252l166 -320h-262l-62 142l-116 -142h-269z" />
<glyph unicode="&#xcb;" d="M72 0l264 1366h936l-62 -309h-587l-41 -217h483l-57 -291h-484l-45 -240h631l-59 -309h-979zM467 1499l50 258h276l-49 -258h-277zM910 1499l49 258h276l-49 -258h-276z" />
<glyph unicode="&#xcc;" horiz-adv-x="591" d="M72 0l264 1366h348l-264 -1366h-348zM258 1788h352l91 -320h-252z" />
<glyph unicode="&#xcd;" horiz-adv-x="591" d="M72 0l264 1366h348l-264 -1366h-348zM361 1468l197 320h352l-297 -320h-252z" />
<glyph unicode="&#xce;" horiz-adv-x="591" d="M72 0l264 1366h348l-264 -1366h-348zM161 1468l291 320h252l166 -320h-262l-62 142l-116 -142h-269z" />
<glyph unicode="&#xcf;" horiz-adv-x="591" d="M72 0l264 1366h348l-264 -1366h-348zM163 1499l50 258h276l-49 -258h-277zM606 1499l49 258h276l-49 -258h-276z" />
<glyph unicode="&#xd0;" horiz-adv-x="1449" d="M86 592l37 184h119l114 590h494q129 0 241.5 -38t195.5 -110.5t131 -177t48 -237.5q0 -174 -56 -321.5t-160.5 -254t-254 -167t-336.5 -60.5h-567l115 592h-121zM502 315h205q94 0 167.5 36t125 97.5t79 143.5t27.5 174q0 135 -72.5 211t-214.5 76h-176l-53 -277h229 l-37 -184h-227z" />
<glyph unicode="&#xd1;" horiz-adv-x="1406" d="M72 0l264 1366h295l375 -778l149 778h344l-264 -1366h-277l-389 801l-153 -801h-344zM496 1647q53 51 121 91t154 40q41 0 72.5 -13.5t60 -29t57.5 -27.5t63 -12q59 0 97.5 20.5t79.5 55.5l96 -166q-47 -45 -114.5 -88t-158.5 -43q-43 0 -74.5 12t-60 27.5t-57.5 28.5 t-64 13q-59 0 -97 -20t-79 -55z" />
<glyph unicode="&#xd2;" horiz-adv-x="1521" d="M147 563q0 166 58.5 318.5t163 269.5t250 185.5t319.5 68.5q131 0 242.5 -42t193.5 -121t127 -189.5t45 -245.5q0 -170 -54 -321.5t-156.5 -267.5t-249 -183.5t-330.5 -67.5q-129 0 -241 42t-193.5 120t-128 188.5t-46.5 245.5zM508 608q0 -66 17.5 -122t52 -98t87 -66.5 t121.5 -24.5q92 0 166 40t126 104.5t80 148.5t28 172q0 63 -17.5 120.5t-52.5 100.5t-87 67.5t-122 24.5q-92 0 -165.5 -40t-126 -104.5t-80 -149.5t-27.5 -173zM696 1788h352l91 -320h-252z" />
<glyph unicode="&#xd3;" horiz-adv-x="1521" d="M147 563q0 166 58.5 318.5t163 269.5t250 185.5t319.5 68.5q131 0 242.5 -42t193.5 -121t127 -189.5t45 -245.5q0 -170 -54 -321.5t-156.5 -267.5t-249 -183.5t-330.5 -67.5q-129 0 -241 42t-193.5 120t-128 188.5t-46.5 245.5zM508 608q0 -66 17.5 -122t52 -98t87 -66.5 t121.5 -24.5q92 0 166 40t126 104.5t80 148.5t28 172q0 63 -17.5 120.5t-52.5 100.5t-87 67.5t-122 24.5q-92 0 -165.5 -40t-126 -104.5t-80 -149.5t-27.5 -173zM809 1468l197 320h352l-297 -320h-252z" />
<glyph unicode="&#xd4;" horiz-adv-x="1521" d="M147 563q0 166 58.5 318.5t163 269.5t250 185.5t319.5 68.5q131 0 242.5 -42t193.5 -121t127 -189.5t45 -245.5q0 -170 -54 -321.5t-156.5 -267.5t-249 -183.5t-330.5 -67.5q-129 0 -241 42t-193.5 120t-128 188.5t-46.5 245.5zM508 608q0 -66 17.5 -122t52 -98t87 -66.5 t121.5 -24.5q92 0 166 40t126 104.5t80 148.5t28 172q0 63 -17.5 120.5t-52.5 100.5t-87 67.5t-122 24.5q-92 0 -165.5 -40t-126 -104.5t-80 -149.5t-27.5 -173zM624 1468l291 320h252l166 -320h-262l-62 142l-116 -142h-269z" />
<glyph unicode="&#xd5;" horiz-adv-x="1521" d="M147 563q0 166 58.5 318.5t163 269.5t250 185.5t319.5 68.5q131 0 242.5 -42t193.5 -121t127 -189.5t45 -245.5q0 -170 -54 -321.5t-156.5 -267.5t-249 -183.5t-330.5 -67.5q-129 0 -241 42t-193.5 120t-128 188.5t-46.5 245.5zM508 608q0 -66 17.5 -122t52 -98t87 -66.5 t121.5 -24.5q92 0 166 40t126 104.5t80 148.5t28 172q0 63 -17.5 120.5t-52.5 100.5t-87 67.5t-122 24.5q-92 0 -165.5 -40t-126 -104.5t-80 -149.5t-27.5 -173zM598 1647q53 51 121 91t154 40q41 0 72.5 -13.5t60 -29t57.5 -27.5t63 -12q59 0 97.5 20.5t79.5 55.5l96 -166 q-47 -45 -114.5 -88t-158.5 -43q-43 0 -74.5 12t-60 27.5t-57.5 28.5t-64 13q-59 0 -97 -20t-79 -55z" />
<glyph unicode="&#xd6;" horiz-adv-x="1521" d="M147 563q0 166 58.5 318.5t163 269.5t250 185.5t319.5 68.5q131 0 242.5 -42t193.5 -121t127 -189.5t45 -245.5q0 -170 -54 -321.5t-156.5 -267.5t-249 -183.5t-330.5 -67.5q-129 0 -241 42t-193.5 120t-128 188.5t-46.5 245.5zM508 608q0 -66 17.5 -122t52 -98t87 -66.5 t121.5 -24.5q92 0 166 40t126 104.5t80 148.5t28 172q0 63 -17.5 120.5t-52.5 100.5t-87 67.5t-122 24.5q-92 0 -165.5 -40t-126 -104.5t-80 -149.5t-27.5 -173zM624 1499l50 258h276l-49 -258h-277zM1067 1499l49 258h276l-49 -258h-276z" />
<glyph unicode="&#xd7;" d="M152 403l294 250l-190 254l217 180l189 -249l286 243l156 -196l-293 -248l186 -246l-217 -180l-184 242l-289 -246z" />
<glyph unicode="&#xd8;" horiz-adv-x="1521" d="M145 -20l150 176q-70 78 -109 180t-39 227q0 166 58.5 318.5t163 269.5t250 185.5t319.5 68.5q98 0 184 -23.5t158 -68.5l141 166l142 -111l-148 -172q63 -76 97 -174t34 -215q0 -170 -54 -321.5t-156.5 -267.5t-249 -183.5t-330.5 -67.5q-180 0 -320 78l-149 -176z M508 608q0 -45 8 -87t25 -77l508 596q-60 35 -142 35q-92 0 -165.5 -40t-126 -104.5t-80 -149.5t-27.5 -173zM670 319q51 -23 116 -22q92 0 166 40t126 104.5t80 148.5t28 172q0 74 -23 137z" />
<glyph unicode="&#xd9;" horiz-adv-x="1372" d="M150 414q0 29 4 57.5t10 58.5l162 836h348l-158 -801q-4 -23 -6 -44t-2 -40q0 -98 52 -140t138 -42q57 0 99.5 18.5t71 51t47 79t28.5 101.5l160 817h352l-164 -848q-31 -160 -93 -266.5t-147 -169t-186.5 -89t-210.5 -26.5q-119 0 -212 33t-158.5 92.5t-100 141 t-34.5 180.5zM627 1788h352l91 -320h-252z" />
<glyph unicode="&#xda;" horiz-adv-x="1372" d="M150 414q0 29 4 57.5t10 58.5l162 836h348l-158 -801q-4 -23 -6 -44t-2 -40q0 -98 52 -140t138 -42q57 0 99.5 18.5t71 51t47 79t28.5 101.5l160 817h352l-164 -848q-31 -160 -93 -266.5t-147 -169t-186.5 -89t-210.5 -26.5q-119 0 -212 33t-158.5 92.5t-100 141 t-34.5 180.5zM735 1468l197 320h352l-297 -320h-252z" />
<glyph unicode="&#xdb;" horiz-adv-x="1372" d="M150 414q0 29 4 57.5t10 58.5l162 836h348l-158 -801q-4 -23 -6 -44t-2 -40q0 -98 52 -140t138 -42q57 0 99.5 18.5t71 51t47 79t28.5 101.5l160 817h352l-164 -848q-31 -160 -93 -266.5t-147 -169t-186.5 -89t-210.5 -26.5q-119 0 -212 33t-158.5 92.5t-100 141 t-34.5 180.5zM534 1468l291 320h252l166 -320h-262l-62 142l-116 -142h-269z" />
<glyph unicode="&#xdc;" horiz-adv-x="1372" d="M150 414q0 29 4 57.5t10 58.5l162 836h348l-158 -801q-4 -23 -6 -44t-2 -40q0 -98 52 -140t138 -42q57 0 99.5 18.5t71 51t47 79t28.5 101.5l160 817h352l-164 -848q-31 -160 -93 -266.5t-147 -169t-186.5 -89t-210.5 -26.5q-119 0 -212 33t-158.5 92.5t-100 141 t-34.5 180.5zM546 1499l50 258h276l-49 -258h-277zM989 1499l49 258h276l-49 -258h-276z" />
<glyph unicode="&#xdd;" horiz-adv-x="1271" d="M215 1366h369l157 -502l353 502h387l-617 -809l-106 -557h-348l106 553zM688 1468l197 320h352l-297 -320h-252z" />
<glyph unicode="&#xde;" horiz-adv-x="1179" d="M72 0l264 1366h340l-41 -215h186q88 0 161 -29.5t126 -83t83 -126t30 -158.5q0 -129 -47.5 -225.5t-125 -160t-180 -94t-215.5 -30.5h-194l-47 -244h-340zM512 522h152q43 0 79.5 11.5t65.5 35t45 62.5t16 94q0 66 -38.5 104.5t-108.5 38.5h-143z" />
<glyph unicode="&#xdf;" horiz-adv-x="1259" d="M49 0l180 930q45 236 177.5 354.5t388.5 118.5q86 0 158.5 -25.5t126 -70.5t84 -107.5t30.5 -136.5q0 -76 -26.5 -130t-67.5 -95q-55 -55 -83 -88t-28 -66q0 -35 24.5 -60.5t86.5 -76.5q78 -66 100.5 -126.5t22.5 -119.5q0 -88 -34 -150.5t-90.5 -103.5t-132 -60.5 t-159.5 -19.5q-92 0 -181 22.5t-155 69.5l150 222q45 -29 80.5 -43.5t95.5 -14.5q55 0 83.5 22.5t28.5 61.5q0 37 -30.5 65.5t-73.5 57.5q-78 51 -112 97t-34 102q0 72 32 131t102 131q37 39 57 73.5t20 69.5q0 49 -31.5 78t-84.5 29q-45 0 -77 -16.5t-55.5 -45t-38 -66.5 t-22.5 -81l-180 -932h-332z" />
<glyph unicode="&#xe0;" horiz-adv-x="1044" d="M57 236q0 82 33 150.5t95.5 118.5t151.5 77.5t200 27.5q47 0 84.5 -3t72.5 -7l2 12q2 8 2 23q0 55 -45 81.5t-110 26.5q-86 0 -144.5 -19t-113.5 -50l-111 198q72 49 187.5 85t250.5 36q86 0 160 -21.5t128 -65.5t85 -109.5t31 -151.5q0 -23 -4 -51.5t-8 -54.5l-105 -539 h-303l10 90q-53 -59 -123.5 -91t-146.5 -32q-59 0 -109.5 18.5t-88.5 54.5t-59.5 85t-21.5 111zM385 303q0 -92 88 -92q25 0 50.5 6t50 21.5t43 42t26.5 69.5l12 64q-35 8 -92 8q-86 0 -132 -31t-46 -88zM437 1397h313l43 -291h-229z" />
<glyph unicode="&#xe1;" horiz-adv-x="1044" d="M57 236q0 82 33 150.5t95.5 118.5t151.5 77.5t200 27.5q47 0 84.5 -3t72.5 -7l2 12q2 8 2 23q0 55 -45 81.5t-110 26.5q-86 0 -144.5 -19t-113.5 -50l-111 198q72 49 187.5 85t250.5 36q86 0 160 -21.5t128 -65.5t85 -109.5t31 -151.5q0 -23 -4 -51.5t-8 -54.5l-105 -539 h-303l10 90q-53 -59 -123.5 -91t-146.5 -32q-59 0 -109.5 18.5t-88.5 54.5t-59.5 85t-21.5 111zM385 303q0 -92 88 -92q25 0 50.5 6t50 21.5t43 42t26.5 69.5l12 64q-35 8 -92 8q-86 0 -132 -31t-46 -88zM522 1106l144 291h313l-225 -291h-232z" />
<glyph unicode="&#xe2;" horiz-adv-x="1044" d="M57 236q0 82 33 150.5t95.5 118.5t151.5 77.5t200 27.5q47 0 84.5 -3t72.5 -7l2 12q2 8 2 23q0 55 -45 81.5t-110 26.5q-86 0 -144.5 -19t-113.5 -50l-111 198q72 49 187.5 85t250.5 36q86 0 160 -21.5t128 -65.5t85 -109.5t31 -151.5q0 -23 -4 -51.5t-8 -54.5l-105 -539 h-303l10 90q-53 -59 -123.5 -91t-146.5 -32q-59 0 -109.5 18.5t-88.5 54.5t-59.5 85t-21.5 111zM293 1106l270 291h260l152 -291h-258l-57 127l-109 -127h-258zM385 303q0 -92 88 -92q25 0 50.5 6t50 21.5t43 42t26.5 69.5l12 64q-35 8 -92 8q-86 0 -132 -31t-46 -88z" />
<glyph unicode="&#xe3;" horiz-adv-x="1044" d="M57 236q0 82 33 150.5t95.5 118.5t151.5 77.5t200 27.5q47 0 84.5 -3t72.5 -7l2 12q2 8 2 23q0 55 -45 81.5t-110 26.5q-86 0 -144.5 -19t-113.5 -50l-111 198q72 49 187.5 85t250.5 36q86 0 160 -21.5t128 -65.5t85 -109.5t31 -151.5q0 -23 -4 -51.5t-8 -54.5l-105 -539 h-303l10 90q-53 -59 -123.5 -91t-146.5 -32q-59 0 -109.5 18.5t-88.5 54.5t-59.5 85t-21.5 111zM262 1270q53 51 121 91t154 40q41 0 72.5 -13.5t60 -29t57.5 -27.5t64 -12q59 0 97 20.5t79 55.5l96 -166q-47 -45 -114.5 -88t-157.5 -43q-43 0 -75 12t-60.5 27.5t-57.5 29 t-63 13.5q-59 0 -97.5 -20.5t-79.5 -55.5zM385 303q0 -92 88 -92q25 0 50.5 6t50 21.5t43 42t26.5 69.5l12 64q-35 8 -92 8q-86 0 -132 -31t-46 -88z" />
<glyph unicode="&#xe4;" horiz-adv-x="1044" d="M57 236q0 82 33 150.5t95.5 118.5t151.5 77.5t200 27.5q47 0 84.5 -3t72.5 -7l2 12q2 8 2 23q0 55 -45 81.5t-110 26.5q-86 0 -144.5 -19t-113.5 -50l-111 198q72 49 187.5 85t250.5 36q86 0 160 -21.5t128 -65.5t85 -109.5t31 -151.5q0 -23 -4 -51.5t-8 -54.5l-105 -539 h-303l10 90q-53 -59 -123.5 -91t-146.5 -32q-59 0 -109.5 18.5t-88.5 54.5t-59.5 85t-21.5 111zM313 1128l48 246h258l-47 -246h-259zM385 303q0 -92 88 -92q25 0 50.5 6t50 21.5t43 42t26.5 69.5l12 64q-35 8 -92 8q-86 0 -132 -31t-46 -88zM709 1128l47 246h258l-47 -246 h-258z" />
<glyph unicode="&#xe5;" horiz-adv-x="1044" d="M57 236q0 82 33 150.5t95.5 118.5t151.5 77.5t200 27.5q47 0 84.5 -3t72.5 -7l2 12q2 8 2 23q0 55 -45 81.5t-110 26.5q-86 0 -144.5 -19t-113.5 -50l-111 198q72 49 187.5 85t250.5 36q86 0 160 -21.5t128 -65.5t85 -109.5t31 -151.5q0 -23 -4 -51.5t-8 -54.5l-105 -539 h-303l10 90q-53 -59 -123.5 -91t-146.5 -32q-59 0 -109.5 18.5t-88.5 54.5t-59.5 85t-21.5 111zM385 303q0 -92 88 -92q25 0 50.5 6t50 21.5t43 42t26.5 69.5l12 64q-35 8 -92 8q-86 0 -132 -31t-46 -88zM424 1323q0 53 20.5 98t54.5 77t80 50.5t97 18.5t97 -18.5t80 -50.5 t54.5 -77t20.5 -98t-20.5 -97t-54.5 -77t-80 -51.5t-97 -18.5t-97 18.5t-80 51.5t-54.5 77t-20.5 97zM598 1323q0 -33 22.5 -55.5t55.5 -22.5t55.5 22.5t22.5 55.5t-22.5 56.5t-55.5 23.5t-55.5 -22.5t-22.5 -57.5z" />
<glyph unicode="&#xe6;" horiz-adv-x="1632" d="M55 244q0 76 33 143.5t95.5 116.5t151.5 77.5t200 28.5q47 0 84.5 -3t72.5 -7l2 12q2 8 2 23q0 55 -45 81.5t-110 26.5q-86 0 -144.5 -19t-113.5 -50l-111 198q72 49 187.5 85t250.5 36q100 0 174 -30.5t121 -79.5q33 25 66 45t68.5 35.5t76.5 23.5t92 8q100 0 176 -34.5 t127.5 -92t77 -131t25.5 -151.5q0 -53 -7.5 -102.5t-19.5 -100.5h-608q14 -88 70.5 -122t134.5 -34q66 0 133 19.5t121 48.5l100 -219q-74 -39 -174 -74t-213 -35q-104 0 -200.5 33t-176.5 119q-78 -82 -168 -117t-200 -35q-72 0 -136.5 17.5t-111.5 52.5t-75 86t-28 121z M383 303q0 -92 88 -92q25 0 50.5 6t50 21.5t43 42t26.5 69.5l12 64q-35 8 -92 8q-86 0 -132 -31t-46 -88zM989 580h326q4 10 4 19v17q0 61 -40 93t-97 32q-66 0 -118 -37.5t-75 -123.5z" />
<glyph unicode="&#xe7;" horiz-adv-x="1007" d="M94 393q0 123 42 232.5t118 191.5t181.5 130t232.5 48q150 0 243 -72.5t140 -195.5l-252 -127q-29 51 -59.5 79t-96.5 28q-43 0 -81 -19.5t-67.5 -55.5t-47 -87t-17.5 -115q0 -88 46 -131t104 -43q57 0 106 27.5t88 66.5l172 -213q-80 -74 -178 -122t-248 -48 q-92 0 -170 32t-135 88t-89 134t-32 172zM197 -438l57 153q35 -12 68.5 -20t68.5 -8q55 0 86 14t31 47q0 29 -31 36t-59 7q-70 0 -135 -27l53 142q86 25 176 24q39 0 76 -10t64.5 -30.5t45 -50t17.5 -68.5q0 -68 -29 -115t-74 -77t-98 -42t-104 -12q-53 0 -109.5 8 t-103.5 29z" />
<glyph unicode="&#xe8;" horiz-adv-x="1067" d="M94 410q0 133 42 241.5t116 185t174 117.5t217 41q100 0 176 -34.5t127 -92t77 -131t26 -151.5q0 -53 -7.5 -102.5t-19.5 -100.5h-608q14 -88 70.5 -122t133.5 -34q66 0 133.5 19.5t120.5 48.5l101 -219q-94 -53 -191.5 -81t-212.5 -28q-90 0 -175 23.5t-151.5 76 t-107.5 136.5t-41 207zM424 580h326q4 10 4 19v17q0 61 -40.5 93t-97.5 32q-66 0 -118 -37.5t-74 -123.5zM441 1397h313l43 -291h-229z" />
<glyph unicode="&#xe9;" horiz-adv-x="1067" d="M94 410q0 133 42 241.5t116 185t174 117.5t217 41q100 0 176 -34.5t127 -92t77 -131t26 -151.5q0 -53 -7.5 -102.5t-19.5 -100.5h-608q14 -88 70.5 -122t133.5 -34q66 0 133.5 19.5t120.5 48.5l101 -219q-94 -53 -191.5 -81t-212.5 -28q-90 0 -175 23.5t-151.5 76 t-107.5 136.5t-41 207zM424 580h326q4 10 4 19v17q0 61 -40.5 93t-97.5 32q-66 0 -118 -37.5t-74 -123.5zM516 1106l144 291h313l-225 -291h-232z" />
<glyph unicode="&#xea;" horiz-adv-x="1067" d="M94 410q0 133 42 241.5t116 185t174 117.5t217 41q100 0 176 -34.5t127 -92t77 -131t26 -151.5q0 -53 -7.5 -102.5t-19.5 -100.5h-608q14 -88 70.5 -122t133.5 -34q66 0 133.5 19.5t120.5 48.5l101 -219q-94 -53 -191.5 -81t-212.5 -28q-90 0 -175 23.5t-151.5 76 t-107.5 136.5t-41 207zM305 1106l270 291h260l152 -291h-258l-57 127l-109 -127h-258zM424 580h326q4 10 4 19v17q0 61 -40.5 93t-97.5 32q-66 0 -118 -37.5t-74 -123.5z" />
<glyph unicode="&#xeb;" horiz-adv-x="1067" d="M94 410q0 133 42 241.5t116 185t174 117.5t217 41q100 0 176 -34.5t127 -92t77 -131t26 -151.5q0 -53 -7.5 -102.5t-19.5 -100.5h-608q14 -88 70.5 -122t133.5 -34q66 0 133.5 19.5t120.5 48.5l101 -219q-94 -53 -191.5 -81t-212.5 -28q-90 0 -175 23.5t-151.5 76 t-107.5 136.5t-41 207zM329 1128l48 246h258l-47 -246h-259zM424 580h326q4 10 4 19v17q0 61 -40.5 93t-97.5 32q-66 0 -118 -37.5t-74 -123.5zM725 1128l47 246h258l-47 -246h-258z" />
<glyph unicode="&#xec;" horiz-adv-x="544" d="M55 0l187 963h331l-186 -963h-332zM222 1397h313l43 -291h-229z" />
<glyph unicode="&#xed;" horiz-adv-x="544" d="M55 0l187 963h331l-186 -963h-332zM288 1106l144 291h313l-225 -291h-232z" />
<glyph unicode="&#xee;" horiz-adv-x="544" d="M55 0l187 963h331l-186 -963h-332zM84 1106l270 291h260l152 -291h-258l-57 127l-109 -127h-258z" />
<glyph unicode="&#xef;" horiz-adv-x="544" d="M55 0l187 963h331l-186 -963h-332zM104 1128l48 246h258l-47 -246h-259zM500 1128l47 246h258l-47 -246h-258z" />
<glyph unicode="&#xf0;" horiz-adv-x="1110" d="M84 354q0 125 37 226.5t107.5 173t170 109.5t226.5 38q41 0 85 -8t95 -29q-18 70 -60.5 122t-99.5 89l-102 -121l-123 97l80 94q-33 10 -65 17l-64 14l82 227q127 -16 225 -49l102 119l123 -97l-76 -90q86 -51 143.5 -117.5t91.5 -142.5t48 -155.5t14 -157.5 q0 -184 -48 -323.5t-131 -233t-194.5 -141.5t-238.5 -48q-92 0 -171 32t-135 85t-89 122.5t-33 147.5zM408 420q0 -66 36.5 -110t102.5 -44q111 0 175.5 89t70.5 249q-29 20 -72 30.5t-80 10.5q-43 0 -85 -13.5t-74.5 -41t-53 -69.5t-20.5 -101z" />
<glyph unicode="&#xf1;" horiz-adv-x="1134" d="M49 0l187 963h321l-10 -101q74 74 147.5 99.5t157.5 25.5q55 0 102 -19.5t82 -56.5t55.5 -90t20.5 -121q0 -25 -2 -50t-6 -54l-117 -596h-332l101 524q6 27 6 54q0 47 -23.5 78.5t-81.5 31.5q-78 0 -120.5 -51t-57.5 -123l-98 -514h-332zM313 1270q53 51 121 91t154 40 q41 0 72.5 -13.5t60 -29t57.5 -27.5t64 -12q59 0 97 20.5t79 55.5l96 -166q-47 -45 -114.5 -88t-157.5 -43q-43 0 -75 12t-60.5 27.5t-57.5 29t-63 13.5q-59 0 -97.5 -20.5t-79.5 -55.5z" />
<glyph unicode="&#xf2;" horiz-adv-x="1114" d="M94 399q0 129 47 237.5t126 188.5t184.5 125t222.5 45q88 0 167 -31.5t137 -88t93 -136.5t35 -176q0 -127 -43 -235.5t-120 -188.5t-183.5 -126t-231.5 -46q-90 0 -168.5 32t-137 88t-93.5 136t-35 176zM412 442q0 -78 39.5 -130t119.5 -52q41 0 81 19.5t71 54.5t49.5 82 t18.5 104q0 78 -40 130t-120 52q-41 0 -81 -19t-70.5 -54t-49 -82t-18.5 -105zM465 1397h313l43 -291h-229z" />
<glyph unicode="&#xf3;" horiz-adv-x="1114" d="M94 399q0 129 47 237.5t126 188.5t184.5 125t222.5 45q88 0 167 -31.5t137 -88t93 -136.5t35 -176q0 -127 -43 -235.5t-120 -188.5t-183.5 -126t-231.5 -46q-90 0 -168.5 32t-137 88t-93.5 136t-35 176zM412 442q0 -78 39.5 -130t119.5 -52q41 0 81 19.5t71 54.5t49.5 82 t18.5 104q0 78 -40 130t-120 52q-41 0 -81 -19t-70.5 -54t-49 -82t-18.5 -105zM563 1106l144 291h313l-225 -291h-232z" />
<glyph unicode="&#xf4;" horiz-adv-x="1114" d="M94 399q0 129 47 237.5t126 188.5t184.5 125t222.5 45q88 0 167 -31.5t137 -88t93 -136.5t35 -176q0 -127 -43 -235.5t-120 -188.5t-183.5 -126t-231.5 -46q-90 0 -168.5 32t-137 88t-93.5 136t-35 176zM352 1106l270 291h260l152 -291h-258l-57 127l-109 -127h-258z M412 442q0 -78 39.5 -130t119.5 -52q41 0 81 19.5t71 54.5t49.5 82t18.5 104q0 78 -40 130t-120 52q-41 0 -81 -19t-70.5 -54t-49 -82t-18.5 -105z" />
<glyph unicode="&#xf5;" horiz-adv-x="1114" d="M94 399q0 129 47 237.5t126 188.5t184.5 125t222.5 45q88 0 167 -31.5t137 -88t93 -136.5t35 -176q0 -127 -43 -235.5t-120 -188.5t-183.5 -126t-231.5 -46q-90 0 -168.5 32t-137 88t-93.5 136t-35 176zM311 1270q53 51 121 91t154 40q41 0 72.5 -13.5t60 -29t57.5 -27.5 t64 -12q59 0 97 20.5t79 55.5l96 -166q-47 -45 -114.5 -88t-157.5 -43q-43 0 -75 12t-60.5 27.5t-57.5 29t-63 13.5q-59 0 -97.5 -20.5t-79.5 -55.5zM412 442q0 -78 39.5 -130t119.5 -52q41 0 81 19.5t71 54.5t49.5 82t18.5 104q0 78 -40 130t-120 52q-41 0 -81 -19 t-70.5 -54t-49 -82t-18.5 -105z" />
<glyph unicode="&#xf6;" horiz-adv-x="1114" d="M94 399q0 129 47 237.5t126 188.5t184.5 125t222.5 45q88 0 167 -31.5t137 -88t93 -136.5t35 -176q0 -127 -43 -235.5t-120 -188.5t-183.5 -126t-231.5 -46q-90 0 -168.5 32t-137 88t-93.5 136t-35 176zM382 1128l48 246h258l-47 -246h-259zM412 442q0 -78 39.5 -130 t119.5 -52q41 0 81 19.5t71 54.5t49.5 82t18.5 104q0 78 -40 130t-120 52q-41 0 -81 -19t-70.5 -54t-49 -82t-18.5 -105zM778 1128l47 246h258l-47 -246h-258z" />
<glyph unicode="&#xf7;" d="M215 514l53 266h785l-54 -266h-784zM385 131l53 272h293l-53 -272h-293zM530 891l56 272h293l-56 -272h-293z" />
<glyph unicode="&#xf8;" horiz-adv-x="1114" d="M76 -18l117 137q-47 55 -73 124.5t-26 155.5q0 129 47 237.5t126 188.5t184.5 125t222.5 45q121 0 221 -59l109 127l106 -90l-106 -125q47 -55 74.5 -127t27.5 -158q0 -127 -43 -235.5t-120 -188.5t-183.5 -126t-231.5 -46q-63 0 -120.5 16.5t-108.5 45.5l-117 -138z M403 442q0 -39 9 -69l280 327q-31 10 -61 11q-43 0 -84 -20.5t-73 -55.5t-51.5 -85.5t-19.5 -107.5zM502 264q30 -12 69 -12q43 0 84 20.5t73 55t51.5 84t19.5 108.5q0 41 -13 76z" />
<glyph unicode="&#xf9;" horiz-adv-x="1126" d="M104 262q0 25 2.5 50.5t6.5 54.5l116 596h332l-100 -525q-6 -29 -6 -53q0 -47 21.5 -79t78.5 -32q78 0 120 51.5t56 123.5l98 514h332l-186 -963h-322l11 100q-74 -74 -147 -99.5t-157 -25.5q-55 0 -101 19.5t-81 56.5t-54.5 90.5t-19.5 120.5zM514 1397h313l43 -291 h-229z" />
<glyph unicode="&#xfa;" horiz-adv-x="1126" d="M104 262q0 25 2.5 50.5t6.5 54.5l116 596h332l-100 -525q-6 -29 -6 -53q0 -47 21.5 -79t78.5 -32q78 0 120 51.5t56 123.5l98 514h332l-186 -963h-322l11 100q-74 -74 -147 -99.5t-157 -25.5q-55 0 -101 19.5t-81 56.5t-54.5 90.5t-19.5 120.5zM571 1106l144 291h313 l-225 -291h-232z" />
<glyph unicode="&#xfb;" horiz-adv-x="1126" d="M104 262q0 25 2.5 50.5t6.5 54.5l116 596h332l-100 -525q-6 -29 -6 -53q0 -47 21.5 -79t78.5 -32q78 0 120 51.5t56 123.5l98 514h332l-186 -963h-322l11 100q-74 -74 -147 -99.5t-157 -25.5q-55 0 -101 19.5t-81 56.5t-54.5 90.5t-19.5 120.5zM371 1106l270 291h260 l152 -291h-258l-57 127l-109 -127h-258z" />
<glyph unicode="&#xfc;" horiz-adv-x="1126" d="M104 262q0 25 2.5 50.5t6.5 54.5l116 596h332l-100 -525q-6 -29 -6 -53q0 -47 21.5 -79t78.5 -32q78 0 120 51.5t56 123.5l98 514h332l-186 -963h-322l11 100q-74 -74 -147 -99.5t-157 -25.5q-55 0 -101 19.5t-81 56.5t-54.5 90.5t-19.5 120.5zM391 1128l48 246h258 l-47 -246h-259zM787 1128l47 246h258l-47 -246h-258z" />
<glyph unicode="&#xfd;" horiz-adv-x="1114" d="M-102 -352l135 239q68 -49 123 -49q51 0 87 32t68 91l31 57l-240 945h359l98 -564l285 564h362l-557 -957q-53 -90 -103 -170t-106.5 -139t-122 -95t-145.5 -36q-78 0 -138.5 12t-135.5 70zM544 1106l144 291h313l-225 -291h-232z" />
<glyph unicode="&#xfe;" horiz-adv-x="1140" d="M-31 -410l344 1776h330l-96 -504q59 68 125.5 93.5t136.5 25.5q63 0 122.5 -28.5t103.5 -81t71 -126t27 -165.5q0 -154 -50.5 -268.5t-132.5 -189.5t-187.5 -113t-215.5 -38q-35 0 -78 4.5t-92 22.5l-78 -408h-330zM430 256q27 -10 54.5 -12t52.5 -2q111 0 184.5 83 t73.5 224q0 68 -37 105.5t-96 37.5q-66 0 -115 -43t-66 -129z" />
<glyph unicode="&#xff;" horiz-adv-x="1114" d="M-102 -352l135 239q68 -49 123 -49q51 0 87 32t68 91l31 57l-240 945h359l98 -564l285 564h362l-557 -957q-53 -90 -103 -170t-106.5 -139t-122 -95t-145.5 -36q-78 0 -138.5 12t-135.5 70zM337 1128l48 246h258l-47 -246h-259zM733 1128l47 246h258l-47 -246h-258z" />
<glyph unicode="&#x152;" horiz-adv-x="2099" d="M147 561q0 168 57.5 321.5t161 269.5t245 184.5t307.5 68.5q125 0 224 -45t165 -125l26 131h889l-61 -309h-592l-41 -217h487l-57 -291h-488l-45 -240h635l-59 -309h-932l25 129q-68 -72 -170.5 -117t-231.5 -45q-106 0 -204.5 42t-174 119t-121 187.5t-45.5 245.5z M508 608q0 -66 17.5 -122t52 -98t87 -66.5t121.5 -24.5q92 0 166 40t126 104.5t80 148.5t28 172q0 63 -17.5 120.5t-52.5 100.5t-87 67.5t-122 24.5q-92 0 -165.5 -40t-126 -104.5t-80 -149.5t-27.5 -173z" />
<glyph unicode="&#x153;" horiz-adv-x="1738" d="M94 399q0 129 46 237.5t124 188.5t179 125t210 45q100 0 180 -34.5t132 -98.5q76 66 155.5 99.5t194.5 33.5q100 0 176 -34.5t127 -92t76.5 -131t25.5 -151.5q0 -53 -7 -102.5t-19 -100.5h-609q14 -88 70.5 -122t134.5 -34q66 0 133.5 19.5t120.5 48.5l101 -219 q-94 -53 -191.5 -81t-212.5 -28q-123 0 -210 36t-154 101q-72 -66 -162 -101.5t-207 -35.5q-82 0 -157 32t-132 88t-91 136t-34 176zM412 442q0 -78 39.5 -130t119.5 -52q41 0 81 19.5t71 54.5t49.5 82t18.5 104q0 78 -40 130t-120 52q-41 0 -81 -19t-70.5 -54t-49 -82 t-18.5 -105zM1096 580h325q4 10 4 19v17q0 61 -40 93t-97 32q-66 0 -118 -37.5t-74 -123.5z" />
<glyph unicode="&#x178;" horiz-adv-x="1271" d="M215 1366h369l157 -502l353 502h387l-617 -809l-106 -557h-348l106 553zM469 1499l50 258h276l-49 -258h-277zM912 1499l49 258h276l-49 -258h-276z" />
<glyph unicode="&#x2c6;" horiz-adv-x="868" d="M256 1106l270 291h260l152 -291h-258l-57 127l-109 -127h-258z" />
<glyph unicode="&#x2dc;" horiz-adv-x="868" d="M219 1270q53 51 121 91t154 40q41 0 72.5 -13.5t60 -29t57.5 -27.5t64 -12q59 0 97 20.5t79 55.5l96 -166q-47 -45 -114.5 -88t-157.5 -43q-43 0 -75 12t-60.5 27.5t-57.5 29t-63 13.5q-59 0 -97.5 -20.5t-79.5 -55.5z" />
<glyph unicode="&#x2000;" horiz-adv-x="922" />
<glyph unicode="&#x2001;" horiz-adv-x="1845" />
<glyph unicode="&#x2002;" horiz-adv-x="922" />
<glyph unicode="&#x2003;" horiz-adv-x="1845" />
<glyph unicode="&#x2004;" horiz-adv-x="615" />
<glyph unicode="&#x2005;" horiz-adv-x="461" />
<glyph unicode="&#x2006;" horiz-adv-x="307" />
<glyph unicode="&#x2007;" horiz-adv-x="307" />
<glyph unicode="&#x2008;" horiz-adv-x="230" />
<glyph unicode="&#x2009;" horiz-adv-x="369" />
<glyph unicode="&#x200a;" horiz-adv-x="102" />
<glyph unicode="&#x2010;" horiz-adv-x="888" d="M147 412l64 323h647l-63 -323h-648z" />
<glyph unicode="&#x2011;" horiz-adv-x="888" d="M147 412l64 323h647l-63 -323h-648z" />
<glyph unicode="&#x2012;" horiz-adv-x="888" d="M147 412l64 323h647l-63 -323h-648z" />
<glyph unicode="&#x2013;" horiz-adv-x="1024" d="M33 412l65 323h1024l-65 -323h-1024z" />
<glyph unicode="&#x2014;" horiz-adv-x="2048" d="M33 412l65 323h2048l-65 -323h-2048z" />
<glyph unicode="&#x2018;" horiz-adv-x="583" d="M195 858l249 508h246l-149 -508h-346z" />
<glyph unicode="&#x2019;" horiz-adv-x="583" d="M219 858l150 508h346l-250 -508h-246z" />
<glyph unicode="&#x201a;" horiz-adv-x="612" d="M31 -166l149 508h346l-250 -508h-245z" />
<glyph unicode="&#x201c;" horiz-adv-x="1028" d="M195 858l249 508h246l-149 -508h-346zM639 858l249 508h246l-149 -508h-346z" />
<glyph unicode="&#x201d;" horiz-adv-x="1028" d="M219 858l150 508h346l-250 -508h-246zM663 858l150 508h346l-250 -508h-246z" />
<glyph unicode="&#x201e;" horiz-adv-x="1058" d="M31 -166l149 508h346l-250 -508h-245zM477 -166l149 508h346l-250 -508h-245z" />
<glyph unicode="&#x2022;" horiz-adv-x="870" d="M213 680q0 63 23.5 118.5t64.5 96.5t96.5 64.5t118.5 23.5t118.5 -23.5t96.5 -64.5t65.5 -96.5t24.5 -118.5t-24.5 -118.5t-65.5 -97.5t-96 -65.5t-119 -23.5q-63 0 -118.5 23.5t-96.5 65.5t-64.5 97.5t-23.5 118.5z" />
<glyph unicode="&#x2026;" horiz-adv-x="1796" d="M59 0l70 365h358l-69 -365h-359zM669 0l70 365h358l-69 -365h-359zM1278 0l70 365h358l-69 -365h-359z" />
<glyph unicode="&#x202f;" horiz-adv-x="369" />
<glyph unicode="&#x2039;" horiz-adv-x="737" d="M172 506l281 397h329l-286 -397l122 -422h-321z" />
<glyph unicode="&#x203a;" horiz-adv-x="737" d="M39 84l287 397l-123 422h321l125 -422l-280 -397h-330z" />
<glyph unicode="&#x205f;" horiz-adv-x="461" />
<glyph unicode="&#x20ac;" d="M68 408l55 176h121q2 29 6 56.5t8 55.5h-133l53 176h125q37 100 93.5 184.5t133 144t173 93t210.5 33.5q256 0 383 -215l-243 -178q-35 51 -78 71.5t-92 20.5q-72 0 -130.5 -40t-99.5 -114h318l-53 -176h-322q-8 -51 -12 -112h331l-55 -176h-262q23 -76 71 -110t111 -34 q66 0 116 18.5t99 63.5l174 -209q-92 -92 -201.5 -131t-234.5 -39q-88 0 -171 29t-149.5 84t-111.5 137t-57 191h-176z" />
<glyph unicode="&#x2122;" horiz-adv-x="1765" d="M229 1157l41 209h711l-41 -209h-235l-111 -575h-240l111 575h-236zM879 582l188 784h207l121 -332l252 332h213l-117 -784h-225l61 417l-168 -235h-129l-84 235l-96 -417h-223z" />
<glyph unicode="&#xe000;" horiz-adv-x="962" d="M0 0v963h963v-963h-963z" />
</font>
</defs>
</svg>
