<?xml version="1.0" standalone="no"?>
<!DOCTYPE svg PUBLIC "-//W3C//DTD SVG 1.1//EN" "http://www.w3.org/Graphics/SVG/1.1/DTD/svg11.dtd" >
<svg xmlns="http://www.w3.org/2000/svg">
<metadata></metadata>
<defs>
<font id="EffraItalic" horiz-adv-x="1116" >
<font-face units-per-em="2048" ascent="1638" descent="-410" />
<missing-glyph horiz-adv-x="356" />
<glyph unicode="&#xfb01;" horiz-adv-x="1062" d="M109 805l28 147h166l19 92q34 176 166 270q121 87 292 87q98 0 186.5 -36t145.5 -99l-117 -111q-53 47 -103 67.5t-136 20.5t-161 -47t-99 -172l-15 -72h566l-185 -952h-178l156 805h-387l-156 -805h-178l155 805h-165z" />
<glyph unicode="&#xfb02;" horiz-adv-x="1054" d="M109 805l28 147h166l19 92q34 175 164 270q120 87 295.5 87t332.5 -96l-252 -1305h-176l234 1210q-64 33 -137.5 33t-115.5 -10t-76 -36q-73 -56 -95 -173l-15 -72h260l-28 -147h-260l-156 -805h-178l155 805h-165z" />
<glyph unicode="&#xfb03;" horiz-adv-x="1660" d="M109 805l28 147h166l14 78q35 193 136.5 282t240.5 89q151 0 236 -109l-109 -110q-55 59 -135 59t-124 -51t-68 -176l-13 -62h420l19 92q34 176 166 270q121 87 292 87q98 0 186.5 -36t145.5 -99l-117 -111q-53 47 -103 67.5t-136 20.5t-161 -47t-99 -172l-15 -72h566 l-185 -952h-178l156 805h-387l-156 -805h-178l155 805h-419l-156 -805h-178l155 805h-165z" />
<glyph unicode="&#xfb04;" horiz-adv-x="1652" d="M109 805l28 147h166l14 78q35 193 136.5 282t240.5 89q151 0 236 -109l-109 -110q-55 59 -135 59t-124 -51t-68 -176l-13 -62h420l19 92q34 175 164 270q120 87 295.5 87t332.5 -96l-252 -1305h-176l234 1210q-64 33 -137.5 33t-115.5 -10t-76 -36q-73 -56 -95 -173 l-15 -72h260l-28 -147h-260l-156 -805h-178l155 805h-419l-156 -805h-178l155 805h-165z" />
<glyph unicode="&#xd;" horiz-adv-x="356" />
<glyph horiz-adv-x="0" />
<glyph horiz-adv-x="0" />
<glyph unicode=" "  horiz-adv-x="356" />
<glyph unicode="&#x09;" horiz-adv-x="356" />
<glyph unicode="&#xa0;" horiz-adv-x="356" />
<glyph unicode="!" horiz-adv-x="507" d="M70 0l43 223h221l-43 -223h-221zM164 393l182 973h197l-193 -973h-186z" />
<glyph unicode="&#x22;" horiz-adv-x="700" d="M199 913l88 453h168l-88 -453h-168zM502 913l88 453h168l-88 -453h-168z" />
<glyph unicode="#" horiz-adv-x="1427" d="M100 336l23 147h272l123 314h-233l22 147h271l135 336h159l-133 -336h291l135 336h160l-133 -336h223l-22 -147h-263l-122 -314h223l-23 -147h-262l-131 -336h-160l131 336h-292l-132 -336h-159l133 336h-236zM555 483h293l123 314h-293z" />
<glyph unicode="$" d="M12 180l117 111q74 -78 145.5 -115t169.5 -45l91 471q-289 118 -289 334q0 149 104 251q119 116 324 124l35 182h120l-36 -186q196 -32 301 -179l-121 -102q-47 55 -93 83t-118 42l-82 -430q151 -70 202 -124q95 -102 95 -213t-36 -184t-97 -122q-121 -96 -312 -109 l-32 -176h-121l35 178q-106 12 -216 60.5t-186 148.5zM426 958q0 -66 36 -109.5t107 -78.5l74 385q-217 -21 -217 -197zM565 133q106 10 164.5 65.5t58.5 140.5t-21.5 117.5t-50 53t-71.5 43.5z" />
<glyph unicode="%" horiz-adv-x="1753" d="M157 854q0 110 32 195.5t85 146.5q112 129 258 129q125 0 194 -83q62 -75 62 -218q0 -79 -31.5 -163.5t-84.5 -146.5q-112 -128 -259 -128q-123 0 -193 83q-63 75 -63 185zM313 859.5q0 -145.5 117 -144.5q75 0 137 92q66 98 66 243.5t-117 145.5q-77 0 -138 -92 q-65 -99 -65 -244.5zM324 0l985 1290h182l-985 -1290h-182zM1038 252q0 110 32 195.5t85 146.5q112 129 258 129q125 0 194 -83q62 -75 62 -218q0 -79 -31.5 -163.5t-84.5 -146.5q-112 -128 -259 -128q-123 0 -193 83q-63 75 -63 185zM1194 257.5q0 -145.5 117 -144.5 q75 0 137 92q66 98 66 243.5t-117 145.5q-77 0 -138 -92q-65 -99 -65 -244.5z" />
<glyph unicode="&#x26;" horiz-adv-x="1253" d="M70 316.5q0 148.5 99 260t275 209.5q-84 137 -84 240.5t30 171.5t80 113q100 90 269 90q113 0 203 -59.5t131 -170.5l-135 -69q-45 88 -95 116.5t-120 28.5t-128 -43t-58 -123t28.5 -140t65.5 -120l256 -407l213 241l114 -102l-245 -272l178 -281h-205l-98 154 q-131 -117 -222 -153q-87 -34 -181.5 -34t-163 28t-114.5 76q-93 97 -93 245.5zM258 351.5q0 -99.5 52.5 -158t144.5 -58.5t159.5 33t149.5 113l-242 383q-115 -61 -189.5 -137t-74.5 -175.5z" />
<glyph unicode="'" horiz-adv-x="397" d="M199 913l88 453h168l-88 -453h-168z" />
<glyph unicode="(" horiz-adv-x="569" d="M139 267.5q0 230.5 42 411.5t103 329q106 263 246 438h181q-276 -407 -353 -809q-30 -160 -30 -284t5 -195.5t14 -135.5q19 -137 44 -212h-180q-72 227 -72 457.5z" />
<glyph unicode=")" horiz-adv-x="569" d="M-43 -190q383 555 383 1146q0 196 -40 398q-11 55 -24 92h181q71 -224 71 -457.5t-42 -413.5t-102 -329q-106 -262 -247 -436h-180z" />
<glyph unicode="*" horiz-adv-x="985" d="M242 940l247 133l-247 131l71 125l240 -151l-12 284h145l-10 -284l237 151l72 -125l-248 -131l248 -133l-72 -125l-237 152l10 -283h-145l12 283l-240 -152z" />
<glyph unicode="+" d="M186 580l31 155h324l63 324h158l-64 -324h320l-31 -155h-319l-62 -324h-157l61 324h-324z" />
<glyph unicode="," horiz-adv-x="499" d="M-4 -240l141 240h-71l43 227h221l-43 -225l-183 -242h-108z" />
<glyph unicode="-" horiz-adv-x="862" d="M166 487l33 172h575l-33 -172h-575z" />
<glyph unicode="." horiz-adv-x="503" d="M66 -2l45 229h223l-45 -229h-223z" />
<glyph unicode="/" horiz-adv-x="798" d="M-35 -33l803 1436h184l-800 -1436h-187z" />
<glyph unicode="0" d="M106 428q0 304 147 578q104 195 276 278q89 43 200 43q193 0 285 -124t92 -335q0 -186 -62 -384q-111 -349 -361 -470q-89 -43 -200 -43q-193 0 -285 123t-92 334zM289 428q0 -129 55.5 -208t143.5 -79t148 39t107.5 101.5t82 141.5t56.5 161q42 162 42 289t-55.5 206.5 t-143.5 79.5t-149.5 -39t-108.5 -101.5t-81 -142t-56 -161.5q-41 -158 -41 -287z" />
<glyph unicode="1" d="M227 0l31 160h227l187 938l-287 -146l-61 133l403 211h166l-225 -1136h227l-31 -160h-637z" />
<glyph unicode="2" d="M80 0l20 121q38 205 264 386q130 103 245.5 180t163.5 119q101 88 101 193q0 66 -47 115t-144 49t-165.5 -46t-122.5 -111l-127 92q170 229 445 229q167 0 266 -90q90 -82 90 -211q0 -163 -107 -280q-51 -54 -117.5 -102t-138.5 -97t-134 -90t-116 -84 q-116 -93 -149 -211h606l-30 -162h-803z" />
<glyph unicode="3" d="M53 109l94 133q63 -49 129 -82t152 -33t142.5 20.5t98.5 57.5q89 78 89 187.5t-54 171t-165 61.5q-49 0 -105 -17l-65 92l450 430h-502l33 160h721l-29 -143l-409 -389q157 -19 237 -124q70 -91 70 -203.5t-38 -194.5t-106 -142q-143 -129 -360 -129q-143 0 -234 45 t-149 99z" />
<glyph unicode="4" d="M92 268l31 152l747 872h179l-175 -870h136l-29 -154h-135l-53 -268h-166l51 268h-586zM305 422h402l124 616z" />
<glyph unicode="5" d="M82 106l92 134q72 -58 118 -76q86 -35 183 -35q145 0 223 88t78 225q0 215 -223 215q-104 0 -221 -55l-76 74l195 614h620l-31 -160h-475l-108 -356q79 27 166.5 27t149 -28t103.5 -76q85 -97 85 -244q0 -212 -135 -349q-137 -139 -365 -139q-227 0 -379 141z" />
<glyph unicode="6" d="M158 406q0 339 164 610q116 193 298 269q95 40 198 40q186 0 310 -96l-92 -135q-92 65 -198.5 65t-175 -33.5t-120.5 -91.5q-89 -99 -151 -297q118 88 271 88q150 0 252 -100q98 -97 98 -234t-37 -232t-99 -161q-128 -133 -329 -133q-190 0 -296 131q-93 116 -93 310z M336 424.5q0 -72.5 11 -122.5t38 -90q60 -89 180 -89q117 0 191 82q80 89 80 248q0 100 -52.5 159.5t-150.5 59.5q-166 0 -277 -97q-20 -78 -20 -150.5z" />
<glyph unicode="7" d="M188 0q242 475 542 926q87 131 144 204h-602l31 162h793l-33 -168q-164 -208 -469 -730q-127 -216 -209 -394h-197z" />
<glyph unicode="8" d="M100 303q0 269 355 414q-95 58 -131 163q-13 40 -13 96t25.5 120.5t77.5 115.5q114 115 309 115q180 0 276 -92q82 -78 82 -200q0 -217 -274 -337q124 -65 177 -194q20 -51 20 -121t-31 -144.5t-91 -134.5q-135 -135 -360 -135q-210 0 -326 108q-96 90 -96 226zM287 330 q0 -139 131 -190q45 -17 99 -17t107.5 14.5t96.5 44.5q100 71 100 203q0 76 -59.5 142.5t-163.5 97.5q-122 -28 -209 -95q-102 -78 -102 -200zM479 973q0 -61 48 -115.5t130 -79.5q107 25 157 66t73.5 81t23.5 83t-11 72.5t-34 53.5q-53 52 -145 52q-94 0 -162 -48 q-80 -56 -80 -165z" />
<glyph unicode="9" d="M88 57l76 146q99 -70 235 -70q155 0 269 126q102 112 149 296q-125 -90 -266 -90q-157 0 -254 95q-98 96 -98 242t42 242.5t109 159.5q132 121 320 121q184 0 290 -126q97 -117 97 -286.5t-40 -334t-123 -302t-209 -224.5t-296 -87q-182 0 -301 92zM375 858 q0 -240 207 -240q80 0 153.5 28t120.5 69q21 92 21 148t-9.5 109.5t-35.5 96.5q-58 98 -183 98q-106 0 -180 -67q-94 -85 -94 -242z" />
<glyph unicode=":" horiz-adv-x="503" d="M66 -2l45 229h223l-45 -229h-223zM207 725l45 229h223l-45 -229h-223z" />
<glyph unicode=";" horiz-adv-x="499" d="M-4 -240l141 240h-71l43 227h221l-43 -225l-183 -242h-108zM205 725l45 229h223l-45 -229h-223z" />
<glyph unicode="&#x3c;" d="M211 596l22 119l785 387l65 -133l-667 -320l530 -315l-86 -135z" />
<glyph unicode="=" d="M152 391l32 156h801l-33 -156h-800zM221 748l31 155h801l-31 -155h-801z" />
<glyph unicode="&#x3e;" d="M135 346l668 320l-531 315l86 131l650 -397l-23 -119l-784 -387z" />
<glyph unicode="?" horiz-adv-x="995" d="M219 1190q174 211 436 211q158 0 259 -77q106 -82 106 -220q0 -183 -158 -309q-49 -39 -102 -73t-90 -60.5t-64 -56.5q-55 -60 -76 -156l-10 -56h-176l10 58q20 111 80 196.5t169 154.5t171 128t62 139t-49.5 123t-136.5 43t-159.5 -29.5t-148.5 -113.5zM248 0l43 225 h219l-43 -225h-219z" />
<glyph unicode="@" horiz-adv-x="1867" d="M102 510q0 199 73 362.5t202 279.5q270 243 698 243q164 0 304.5 -52.5t241.5 -145.5t158.5 -221t57.5 -272.5t-34 -275.5t-101.5 -233.5t-166.5 -165t-207 -62.5q-205 0 -234 148q-138 -142 -320 -142q-114 0 -192 66q-86 73 -86 172.5t32.5 170.5t93.5 121 q124 103 343 103q140 0 219 -18l6 33q6 25 6 49q0 72 -47 116.5t-149.5 44.5t-167 -30.5t-111.5 -61.5l-74 119q166 123 391 123q145 0 235.5 -78t90.5 -215q0 -43 -8 -82l-80 -405q-2 -8 -2 -25q0 -59 66.5 -59t124 42t102.5 117q100 165 100 410q0 247 -173 404 q-169 153 -439 153q-335 0 -557 -186q-236 -199 -236 -547q0 -244 144 -457l-130 -73q-145 211 -168 416q-6 59 -6 114zM672 268q0 -84 40 -116.5t106.5 -32.5t115.5 18.5t91 50.5q92 68 114 168l18 97q-101 14 -187.5 14t-144 -17.5t-91.5 -45.5q-62 -52 -62 -136z" />
<glyph unicode="A" horiz-adv-x="1259" d="M-51 0l776 1366h193l249 -1366h-200l-62 383h-543l-208 -383h-205zM449 545h430l-99 608z" />
<glyph unicode="B" horiz-adv-x="1159" d="M78 0l264 1366h426q169 0 266 -88q92 -84 92 -209q0 -202 -173 -300q-46 -26 -89 -44q88 -22 148 -95q67 -81 67 -196t-47 -199.5t-125 -136.5q-145 -98 -399 -98h-430zM293 168h270q228 0 299 143q25 49 25 113.5t-19.5 103.5t-53.5 62q-63 41 -179 41h-254zM414 793 h239q181 0 259 128q26 44 26 101t-17.5 91t-46.5 53q-51 34 -157 34h-225z" />
<glyph unicode="C" horiz-adv-x="1316" d="M137 563q0 164 57.5 315.5t161 267.5t246.5 185.5t317 69.5q328 0 472 -285l-148 -94q-63 109 -142 157t-204 48t-228.5 -53.5t-176.5 -143.5q-154 -188 -154 -450q0 -190 99 -310q104 -127 284 -127q244 0 403 201l127 -125q-213 -254 -538 -254q-259 0 -420 167 q-156 162 -156 431z" />
<glyph unicode="D" horiz-adv-x="1413" d="M78 0l264 1366h422q284 0 448 -148q166 -148 166 -403q0 -364 -228 -587q-234 -228 -620 -228h-452zM299 176h260q277 0 447 166q170 167 170 449q0 186 -112 292.5t-347 106.5h-219z" />
<glyph unicode="E" horiz-adv-x="1085" d="M78 0l264 1366h825l-32 -174h-639l-78 -399h481l-33 -172h-483l-86 -445h686l-33 -176h-872z" />
<glyph unicode="F" horiz-adv-x="1040" d="M78 0l264 1366h823l-35 -176h-636l-80 -420h485l-33 -172h-487l-115 -598h-186z" />
<glyph unicode="G" horiz-adv-x="1376" d="M137 563q0 164 58.5 315.5t163 267.5t249 185.5t318.5 69.5t291.5 -77t183.5 -208l-148 -94q-63 109 -144 157t-206 48t-229.5 -53.5t-179.5 -143.5q-156 -189 -156 -450q0 -194 101 -312q106 -125 299 -125t337 111l51 274h-280l33 166h460l-102 -536 q-100 -96 -235.5 -144.5t-273.5 -48.5t-245.5 44t-184.5 123q-161 165 -161 431z" />
<glyph unicode="H" horiz-adv-x="1394" d="M78 0l264 1366h188l-110 -573h719l110 573h189l-264 -1366h-189l119 621h-719l-119 -621h-188z" />
<glyph unicode="I" horiz-adv-x="487" d="M78 0l264 1366h188l-264 -1366h-188z" />
<glyph unicode="J" horiz-adv-x="970" d="M-8 141l119 125q66 -72 126 -99.5t121.5 -27.5t105.5 11.5t80 41.5q72 58 103 214l187 960h188l-193 -997q-82 -404 -452 -404q-255 0 -385 176z" />
<glyph unicode="K" horiz-adv-x="1185" d="M78 0l264 1366h186l-120 -621l669 621h226l-598 -565l378 -801h-211l-315 676l-197 -172l-96 -504h-186z" />
<glyph unicode="L" horiz-adv-x="1077" d="M78 0l264 1366h188l-231 -1196h682l-33 -170h-870z" />
<glyph unicode="M" horiz-adv-x="1548" d="M61 0l326 1366h178l248 -717l547 717h184l-205 -1366h-184l160 1049l-498 -646h-92l-240 646l-245 -1049h-179z" />
<glyph unicode="N" horiz-adv-x="1390" d="M78 0l264 1366h190l506 -1081l211 1081h185l-265 -1366h-188l-508 1083l-211 -1083h-184z" />
<glyph unicode="O" horiz-adv-x="1521" d="M137 541q0 172 56.5 327.5t159 274.5t246 188.5t293 69.5t255.5 -40t184 -115q168 -162 168 -421q0 -168 -55 -323.5t-155.5 -274t-242 -190.5t-294 -72t-262 43t-188.5 120q-165 161 -165 413zM338 588.5q0 -105.5 25.5 -184t75.5 -136.5q106 -125 300 -125 q125 0 228.5 56.5t177.5 146.5t113.5 205t39.5 219t-23.5 185t-71.5 141q-104 131 -300 131q-133 0 -238.5 -57.5t-178 -149.5t-110.5 -209t-38 -222.5z" />
<glyph unicode="P" horiz-adv-x="1112" d="M78 0l264 1366h403q204 0 307 -114q87 -95 87 -227t-44 -223t-119 -150q-144 -115 -380 -115h-229l-103 -537h-186zM399 700h228q147 0 231 77t84 222q0 92 -56.5 148.5t-166.5 56.5h-221z" />
<glyph unicode="Q" horiz-adv-x="1521" d="M137 541q0 172 56.5 327.5t159 274.5t246 188.5t293 69.5t255.5 -40t184 -115q168 -162 168 -421q0 -211 -85 -396t-234 -308l116 -195l-137 -86l-117 195q-148 -70 -295 -70t-256.5 43t-188.5 120q-165 161 -165 413zM338 588.5q0 -105.5 25.5 -184t75.5 -136.5 q106 -125 300 -125q113 0 211 47l-123 209l136 86l120 -204q102 94 158.5 227t56.5 249.5t-23.5 197.5t-71.5 141q-104 131 -300 131q-133 0 -238.5 -57.5t-178 -149.5t-110.5 -209t-38 -222.5z" />
<glyph unicode="R" horiz-adv-x="1146" d="M78 0l264 1366h408q201 0 307 -110q90 -92 90 -228q0 -262 -197 -383q-61 -37 -131 -57l187 -588h-201l-166 559h-272l-107 -559h-182zM397 723h236q147 0 232 65.5t85 219.5q0 92 -58 144t-169 52h-231z" />
<glyph unicode="S" horiz-adv-x="1144" d="M45 195l129 118q86 -94 170 -134t205 -40t205 65.5t84 182.5q0 90 -60 141q-40 35 -149 81.5t-170.5 81t-106.5 77.5q-98 94 -98 225q0 172 130 287q136 121 349 121q253 0 402 -201l-134 -113q-47 59 -112.5 102.5t-182 43.5t-186 -58.5t-69.5 -152.5q0 -88 61 -138 q40 -33 150 -81t170.5 -81.5t105.5 -77.5q94 -92 94 -219.5t-40 -210.5t-110 -138q-138 -111 -354 -111q-134 0 -221.5 37t-148 81t-113.5 112z" />
<glyph unicode="T" horiz-adv-x="1220" d="M207 1198l33 168h1126l-33 -168h-467l-231 -1198h-191l232 1198h-469z" />
<glyph unicode="U" horiz-adv-x="1323" d="M156 391q0 61 12 129l164 846h188l-155 -799q-17 -87 -17 -147q0 -127 64.5 -201t220.5 -74q179 0 271 100q82 89 124 302l160 819h188l-168 -866q-53 -261 -186 -390q-151 -145 -406 -145q-223 0 -346 121q-114 114 -114 305z" />
<glyph unicode="V" horiz-adv-x="1247" d="M205 1366h203l182 -1120l612 1120h209l-772 -1366h-193z" />
<glyph unicode="W" horiz-adv-x="1726" d="M217 1366h199l47 -1102l481 1061h189l77 -1055l459 1096h205l-612 -1366h-201l-84 1010l-471 -1010h-199z" />
<glyph unicode="X" horiz-adv-x="1175" d="M-53 0l594 717l-303 649h213l225 -508l407 508h220l-547 -664l327 -702h-217l-248 557l-450 -557h-221z" />
<glyph unicode="Y" horiz-adv-x="1134" d="M203 1366h198l228 -588l456 588h213l-600 -756l-116 -610h-191l117 608z" />
<glyph unicode="Z" horiz-adv-x="1261" d="M23 0l32 172l1004 1024h-766l33 170h1007l-33 -174l-1003 -1022h817l-33 -170h-1058z" />
<glyph unicode="[" horiz-adv-x="618" d="M43 -190l319 1636h414l-33 -162h-233l-252 -1309h234l-35 -165h-414z" />
<glyph unicode="\" horiz-adv-x="798" d="M252 1403h170l244 -1436h-174z" />
<glyph unicode="]" horiz-adv-x="618" d="M-61 -190l34 165h234l252 1309h-234l33 162h418l-320 -1636h-417z" />
<glyph unicode="^" horiz-adv-x="1079" d="M162 631l491 735h158l205 -735h-172l-144 549l-356 -549h-182z" />
<glyph unicode="_" horiz-adv-x="993" d="M-94 -248l20 105h981l-20 -105h-981z" />
<glyph unicode="`" horiz-adv-x="878" d="M469 1386h190l58 -278h-142z" />
<glyph unicode="a" horiz-adv-x="980" d="M45 213.5q0 101.5 34 172.5t95 120q126 100 340 100q140 0 219 -18l6 33q6 25 6 49q0 72 -47 116.5t-149 44.5t-167 -30.5t-112 -61.5l-73 119q166 123 391 123q145 0 235 -78t90 -215q0 -43 -8 -82l-82 -418q-27 -141 -32 -188h-164l16 115q-138 -142 -319 -142 q-115 0 -195 68q-84 71 -84 172.5zM221 267q0 -83 40 -115.5t106.5 -32.5t115.5 18.5t91 50.5q94 70 114 168l19 97q-101 14 -188 14t-144.5 -17.5t-90.5 -45.5q-63 -54 -63 -137z" />
<glyph unicode="b" horiz-adv-x="1083" d="M51 45l256 1321h176l-100 -522q118 131 313 131q152 0 245 -113q85 -103 85 -251t-45 -265t-127 -200q-173 -175 -444 -175q-113 0 -210.5 22.5t-148.5 51.5zM246 154q79 -25 182.5 -25t179.5 34t127 94q107 126 107 314q0 172 -106 227q-38 19 -100.5 19t-117.5 -23.5 t-96 -63.5q-79 -77 -103 -193z" />
<glyph unicode="c" horiz-adv-x="972" d="M96 371q0 265 158 440q155 172 394 172t335 -217l-133 -74q-37 66 -87 100.5t-129 34.5t-140.5 -30.5t-108.5 -86.5q-104 -122 -104 -311q0 -119 66.5 -195.5t162.5 -76.5t154.5 30.5t113.5 84.5l99 -111q-151 -160 -381 -160q-182 0 -293 115q-107 111 -107 285z" />
<glyph unicode="d" horiz-adv-x="1089" d="M92 337q0 169 56.5 290t139.5 198.5t180 113.5t183 36t137.5 -15.5t106.5 -48.5l88 455h178l-225 -1159q-12 -63 -21.5 -109.5t-17.5 -97.5h-172l16 117q-79 -91 -197 -129q-50 -17 -115 -17t-127 24.5t-108 70.5q-102 102 -102 271zM276 362q0 -106 48.5 -170.5 t156.5 -64.5q129 0 221 100q78 85 97 183l65 346q-51 37 -102 50t-120 13t-133.5 -31.5t-116.5 -91.5q-116 -132 -116 -334z" />
<glyph unicode="e" horiz-adv-x="1058" d="M98 375q0 257 148 430q71 82 167.5 130t205 48t179 -31.5t115.5 -85.5q86 -105 86 -282q0 -80 -18 -162h-707q-2 -10 -2 -18v-13q0 -113 62.5 -189.5t172 -76.5t175.5 29.5t131 93.5l100 -107q-68 -72 -169 -121t-217.5 -49t-193.5 31t-129 85q-106 110 -106 288z M297 557h532l2 37q0 104 -53 175t-167 71t-195.5 -75t-118.5 -208z" />
<glyph unicode="f" horiz-adv-x="649" d="M109 805l28 147h166l14 78q35 193 138.5 282t246.5 89q61 0 128 -24.5t114 -84.5l-108 -110q-52 59 -139 59t-133 -51t-70 -176l-13 -62h260l-28 -147h-260l-156 -805h-178l155 805h-165z" />
<glyph unicode="g" horiz-adv-x="1085" d="M37 -338l82 145q126 -81 282 -81q249 0 308 284l22 111q-63 -76 -185 -113q-50 -16 -110 -16q-156 0 -252 91t-96 240.5t43 266.5t122 203q167 182 437 182q113 0 213.5 -24.5t155.5 -49.5l-174 -909q-84 -426 -500 -426q-208 0 -348 96zM272 369q0 -98 44 -160t159 -62 q121 0 211 81q76 70 98 173l78 394q-77 27 -176 27h-4q-102 -1 -175 -34.5t-125 -93.5q-110 -128 -110 -325z" />
<glyph unicode="h" horiz-adv-x="1067" d="M49 0l264 1366h172l-108 -557q78 86 158.5 126t196.5 40t191.5 -78t75.5 -209q0 -62 -10 -117l-110 -571h-177l107 557q10 51 10 86q0 172 -157 172q-132 0 -228 -107q-92 -104 -123 -255l-86 -453h-176z" />
<glyph unicode="i" horiz-adv-x="436" d="M57 0l185 952h178l-184 -952h-179zM258 1122l41 207h199l-41 -207h-199z" />
<glyph unicode="j" horiz-adv-x="436" d="M-303 -340l72 133q35 -23 59.5 -34t56 -11t56 9.5t45.5 38.5q44 64 73 222l183 934h178l-195 -995q-37 -182 -96 -260q-81 -107 -225 -107q-125 0 -207 70zM258 1122l41 207h199l-41 -207h-199z" />
<glyph unicode="k" horiz-adv-x="962" d="M51 0l264 1366h177l-156 -805l459 391h215l-424 -366l276 -586h-190l-223 477l-154 -129l-68 -348h-176z" />
<glyph unicode="l" horiz-adv-x="419" d="M51 0l264 1366h177l-265 -1366h-176z" />
<glyph unicode="m" horiz-adv-x="1671" d="M51 0l144 745q12 63 21 109.5t17 97.5h168l-22 -143q78 86 157.5 126t171 40t157 -47t93.5 -129q84 92 171.5 134t173 42t136 -20.5t87.5 -57.5q78 -78 78 -209q0 -56 -11 -117l-110 -571h-176l106 557q10 51 10 86q0 172 -155 172q-109 0 -194 -68.5t-113 -209.5 l-105 -537h-176l106 557q11 54 11 111.5t-37 101.5q-37 45 -102.5 45t-121 -29.5t-100.5 -79.5q-91 -100 -123 -255l-86 -451h-176z" />
<glyph unicode="n" horiz-adv-x="1069" d="M51 0l144 745q12 63 21 109.5t17 97.5h168l-22 -143q78 86 158.5 126t196.5 40t191.5 -78t75.5 -209q0 -62 -10 -117l-110 -571h-176l106 557q10 51 10 86q0 82 -36.5 127t-111.5 45t-133.5 -29.5t-103.5 -79.5q-91 -100 -123 -255l-86 -451h-176z" />
<glyph unicode="o" horiz-adv-x="1124" d="M96 383q0 247 162 422q76 82 176 130t205.5 48t181.5 -28.5t131 -82.5q113 -114 113 -303q0 -251 -157 -425q-157 -173 -402 -173q-182 0 -296 114t-114 298zM276 412q0 -125 59.5 -205t186.5 -80q140 0 248 115q115 123 115 301q0 133 -61.5 208.5t-195 75.5 t-243 -121.5t-109.5 -293.5z" />
<glyph unicode="p" horiz-adv-x="1107" d="M-29 -410l224 1155q12 63 21 109.5t17 97.5h168l-22 -143q18 18 46 47t69 54q104 65 229 65q145 0 240 -110q88 -102 88 -259.5t-52.5 -279t-133.5 -200.5t-181 -117t-188.5 -38t-143.5 18.5t-119 57.5l-88 -457h-174zM266 207q88 -80 211 -80q288 0 372 315 q17 64 17 133q0 242 -192 242q-133 0 -233 -102t-130 -266z" />
<glyph unicode="q" horiz-adv-x="1085" d="M88 320.5q0 150.5 43 268.5t122 204q167 182 437 182q113 0 213.5 -24.5t155.5 -49.5l-254 -1311h-178l96 504q-123 -123 -289 -123q-155 0 -251 100q-95 99 -95 249.5zM272 365q0 -168 106 -219q38 -19 99.5 -19t114.5 23.5t92 60.5q76 72 98 176l80 408 q-83 26 -181.5 26t-170.5 -32.5t-125 -92.5q-113 -129 -113 -331z" />
<glyph unicode="r" horiz-adv-x="714" d="M51 0l146 758q18 90 36 194h168l-24 -151q144 166 315 166q56 0 111 -19l-66 -172q-49 17 -104 17t-107.5 -25t-94.5 -67q-83 -83 -109 -209l-95 -492h-176z" />
<glyph unicode="s" horiz-adv-x="903" d="M25 106l96 127q112 -89 220 -103q38 -5 105.5 -5t117.5 36t50 99q0 72 -107 119q-32 14 -70 30.5t-85 38t-87 52.5q-93 74 -93 192q0 139 106 219q97 72 265 72q198 0 334 -143l-107 -105q-103 99 -242 99q-84 0 -130 -30t-46 -83q0 -52 32 -79q46 -40 132 -75.5 t131 -59.5t80 -55q76 -66 76 -165q0 -152 -106.5 -234t-278.5 -82q-234 0 -393 135z" />
<glyph unicode="t" horiz-adv-x="755" d="M119 805l28 147h166l60 312h176l-60 -312h269l-29 -147h-270l-92 -486q-8 -41 -9 -79q0 -113 97 -113q79 0 145 66l86 -107q-122 -113 -254 -113q-256 0 -256 232q0 39 10 96l97 504h-164z" />
<glyph unicode="u" horiz-adv-x="1058" d="M96 264q0 62 10 117l111 571h176l-106 -557q-11 -54 -11 -111.5t36 -101.5q36 -45 111 -45t132 30t103 79q92 96 122 256l86 450h176l-143 -745q-12 -63 -21.5 -109.5t-17.5 -97.5h-168l23 143q-78 -86 -158 -126t-195.5 -40t-190.5 78t-75 209z" />
<glyph unicode="v" horiz-adv-x="987" d="M104 952h199l137 -741l426 741h199l-576 -952h-176z" />
<glyph unicode="w" horiz-adv-x="1419" d="M115 952h188l64 -723l360 723h152l75 -729l338 729h197l-488 -952h-176l-82 662l-337 -662h-168z" />
<glyph unicode="x" horiz-adv-x="958" d="M-70 0l457 508l-237 444h200l164 -323l274 323h213l-411 -454l260 -498h-199l-186 373l-318 -373h-217z" />
<glyph unicode="y" horiz-adv-x="987" d="M-98 -371l67 127q59 -41 102.5 -41t68 12.5t48.5 40.5q38 44 117 185l35 61l-223 938h196l154 -719l399 719h199l-619 -1058q-105 -177 -155 -230q-96 -100 -199 -100q-122 0 -190 65z" />
<glyph unicode="z" horiz-adv-x="913" d="M14 0l27 145l643 660h-496l29 147h721l-29 -147l-653 -658h532l-28 -147h-746z" />
<glyph unicode="{" horiz-adv-x="567" d="M104 582l23 116q74 4 119 52.5t61 111.5l94 355q25 92 56.5 143t85.5 86h178q-41 -27 -81 -82t-56 -125l-101 -395q-23 -86 -72 -136.5t-110 -66.5q102 -35 102 -158q0 -21 -4 -47l-53 -389q-4 -24 -4 -49q0 -119 55 -188h-174q-51 72 -51 180q0 37 6 80l49 348 q2 10 2 47t-30.5 75t-94.5 42z" />
<glyph unicode="|" horiz-adv-x="458" d="M4 -336l395 2042h168l-395 -2042h-168z" />
<glyph unicode="}" horiz-adv-x="567" d="M-57 -190q41 27 80.5 82t56.5 124l100 396q23 86 72 136t110 66q-102 35 -102 158q0 23 4 47l53 389q5 30 5 49q0 120 -56 189h174q51 -72 52 -180q0 -37 -7 -80l-49 -348q-2 -10 -2 -47t31 -75t94 -42l-22 -117q-74 -4 -119 -52t-62 -112l-94 -354q-25 -92 -56.5 -143.5 t-84.5 -85.5h-178z" />
<glyph unicode="~" horiz-adv-x="940" d="M119 625q140 129 260 129q64 0 123 -31t92 -45t74 -14q94 0 172 67l65 -100q-140 -129 -260 -129q-66 0 -124 30.5t-92 45t-73 14.5q-92 0 -172 -68z" />
<glyph unicode="&#xa1;" horiz-adv-x="507" d="M25 -414l192 973h186l-182 -973h-196zM233 729l43 223h222l-43 -223h-222z" />
<glyph unicode="&#xa2;" d="M195 526.5q0 137.5 37.5 245t103.5 186.5q141 169 358 189l35 182h121l-37 -186q188 -29 268 -211l-133 -74q-29 51 -66.5 85t-97.5 44l-135 -694q72 6 124 36.5t104 78.5l98 -111q-141 -153 -357 -160l-32 -176h-121l35 184q-143 29 -224 136.5t-81 245zM379 562 q0 -89 41 -157.5t112 -97.5l132 680q-121 -26 -201 -136q-84 -116 -84 -289z" />
<glyph unicode="&#xa3;" d="M174 594l29 149h145l37 183q82 401 453 401q207 0 313 -168l-135 -98q-41 57 -86 77.5t-111 20.5q-104 0 -166.5 -62.5t-89.5 -199.5l-31 -154h396l-29 -149h-395l-82 -422h586l-33 -172h-772l116 594h-145z" />
<glyph unicode="&#xa4;" d="M139 328l133 133q-67 95 -67 219.5t67 226.5l-133 131l113 115l131 -133q106 76 229 76q122 0 230 -74l131 131l112 -115l-133 -131q70 -104 70 -224t-70 -224l133 -131l-112 -115l-131 131q-102 -72 -231.5 -72t-227.5 74l-131 -133zM352 684q0 -107 76 -185 q77 -79 184 -79t186 79q76 76 76 185q0 111 -76 186q-80 78 -186 78q-107 0 -184 -78q-76 -78 -76 -186z" />
<glyph unicode="&#xa5;" d="M119 256l24 125h308l32 176h-307l25 125h237l-221 610h195l192 -575l410 575h209l-459 -610h233l-24 -125h-314l-32 -176h313l-25 -125h-313l-49 -256h-176l49 256h-307z" />
<glyph unicode="&#xa6;" horiz-adv-x="458" d="M4 -336l150 776h168l-150 -776h-168zM250 930l149 776h168l-151 -776h-166z" />
<glyph unicode="&#xa7;" horiz-adv-x="909" d="M47 -313l111 110q80 -76 184 -76t161.5 61.5t57.5 164.5q0 71 -35 121q-50 74 -176 190l-250 236l117 127l277 -250q115 -104 178 -194.5t63 -195t-30.5 -180t-84.5 -127.5q-109 -108 -272 -108q-190 0 -301 121zM233 985q0 104 31 180t84 129q109 107 273 107 q190 0 301 -121l-111 -111q-80 76 -184 76t-161.5 -61.5t-57.5 -163.5q0 -71 34 -121q49 -72 176 -190l250 -236l-116 -127l-277 250q-115 104 -178.5 194.5t-63.5 194.5z" />
<glyph unicode="&#xa8;" horiz-adv-x="684" d="M250 1147l37 186h186l-37 -186h-186zM588 1147l37 186h182l-37 -186h-182z" />
<glyph unicode="&#xa9;" horiz-adv-x="1591" d="M139 686q0 150 55.5 280t150.5 226t225 152.5t281 56.5t280 -56.5t224 -152.5t150.5 -226t55.5 -280t-55.5 -280t-150.5 -227t-225 -152.5t-280 -55.5t-280 55.5t-225 152.5t-150.5 227.5t-55.5 279.5zM287 684q0 -247 159 -412q162 -168 404 -168t404 168 q159 165 159 412q0 245 -159 413q-159 169 -402 169q-245 0 -404 -169q-161 -170 -161 -413zM473 686q0 166 109 276q112 111 278 111q104 0 183 -48t128 -120l-106 -76q-79 109 -192.5 109t-179.5 -69.5t-66 -180t66.5 -182.5t183.5 -72t190 113l104 -84 q-49 -72 -127.5 -120t-174 -48t-167 29.5t-122.5 81.5q-107 109 -107 280z" />
<glyph unicode="&#xaa;" horiz-adv-x="749" d="M182 852q0 99 91 166q85 63 227 63q70 0 139 -12l2 16l2 25q0 92 -119 92q-112 0 -194 -55l-56 98q115 82 275 82q104 0 165.5 -48t61.5 -140q0 -25 -6 -56l-55 -282q-6 -31 -11.5 -54.5t-9.5 -58.5h-121l11 70q-37 -39 -97.5 -62.5t-129 -23.5t-122 45t-53.5 135z M322 870q0 -37 18 -59.5t63.5 -22.5t77 9.5t59.5 26.5q61 40 72 100l9 43q-45 10 -133 10t-127 -35t-39 -72z" />
<glyph unicode="&#xab;" horiz-adv-x="987" d="M129 498l268 385h175l-267 -391l119 -400h-164zM475 498l268 385h175l-267 -391l119 -400h-164z" />
<glyph unicode="&#xac;" d="M186 578l31 159h801l-84 -436h-156l53 277h-645z" />
<glyph unicode="&#xad;" horiz-adv-x="862" d="M166 487l33 172h575l-33 -172h-575z" />
<glyph unicode="&#xae;" horiz-adv-x="1591" d="M139 686q0 150 55.5 280t150.5 226t225 152.5t281 56.5t280 -56.5t224 -152.5t150.5 -226t55.5 -280t-55.5 -280t-150.5 -227t-225 -152.5t-280 -55.5t-280 55.5t-225 152.5t-150.5 227.5t-55.5 279.5zM287 684q0 -247 159 -412q162 -168 404 -168t404 168 q159 165 159 412q0 245 -159 413q-159 169 -402 169q-245 0 -404 -169q-161 -170 -161 -413zM602 328v723h279q123 0 195 -70q61 -59 61 -136q0 -162 -144 -218l176 -299h-151l-162 280h-121v-280h-133zM735 715h139q63 0 94 31.5t31 82.5q0 109 -133 109h-131v-223z" />
<glyph unicode="&#xaf;" horiz-adv-x="686" d="M270 1157l29 148h492l-29 -148h-492z" />
<glyph unicode="&#xb0;" horiz-adv-x="653" d="M139 1077q0 118 81 197q80 78 198 78q120 0 200 -78q80 -79 80 -195q0 -117 -80 -196q-80 -78 -198 -78q-120 0 -200 78q-81 79 -81 194zM270 1077q0 -66 42 -108.5t108 -42.5t107.5 43t41.5 108t-42 108.5t-107 43.5t-107.5 -43t-42.5 -109z" />
<glyph unicode="&#xb1;" d="M75 2l31 155h801l-31 -155h-801zM186 580l31 155h324l63 324h158l-64 -324h320l-31 -155h-319l-62 -324h-157l61 324h-324z" />
<glyph unicode="&#xb2;" horiz-adv-x="737" d="M123 606l14 78q12 72 67.5 137.5t144.5 116.5t124 74.5t55 41.5q31 30 31 65.5t-24.5 55t-61.5 19.5q-96 0 -168 -76l-90 82q41 47 110.5 86t175.5 39t164 -52t58 -126q0 -82 -47 -137q-33 -39 -128 -96.5t-158.5 -97.5t-90.5 -89h350l-26 -121h-500z" />
<glyph unicode="&#xb3;" horiz-adv-x="737" d="M119 670l69 104q92 -65 173 -65q165 0 165 122q0 55 -33.5 79t-77 24t-75.5 -12l-33 55l228 205h-275l27 123h450l-24 -111l-201 -174q158 -42 158 -184q0 -113 -84 -181.5t-226 -68.5q-137 0 -241 84z" />
<glyph unicode="&#xb4;" horiz-adv-x="788" d="M465 1108l151 278h195l-201 -278h-145z" />
<glyph unicode="&#xb5;" horiz-adv-x="1064" d="M-37 -410l264 1362h176l-108 -559q-10 -63 -10 -90q0 -166 159 -166q128 0 226 111q92 104 123 266l84 438h176l-142 -729q-18 -87 -41 -223h-168l23 143q-83 -104 -215 -147q-49 -16 -106 -16q-113 0 -177 67l-88 -457h-176z" />
<glyph unicode="&#xb6;" horiz-adv-x="1009" d="M172 956.5q0 96.5 47 177t127 132.5q156 100 399 100l-143 -741q-298 0 -396 175q-34 60 -34 156.5zM254 -250l149 778q46 -16 125 -16h52l-148 -762h-178zM571 -250l314 1616h182l-313 -1616h-183z" />
<glyph unicode="&#xb7;" horiz-adv-x="497" d="M190 547l46 229h223l-45 -229h-224z" />
<glyph unicode="&#xb8;" horiz-adv-x="1105" d="M35 -430l39 111q75 -29 143 -29t102.5 24.5t34.5 62.5t-24.5 51t-68.5 13q-74 0 -148 -26l34 112q89 27 173 27t133 -44t49 -106.5t-22.5 -104.5t-60.5 -69q-73 -53 -178 -53q-128 0 -206 31z" />
<glyph unicode="&#xb9;" horiz-adv-x="737" d="M254 1163l281 142h133l-136 -699h-151l104 531l-186 -86z" />
<glyph unicode="&#xba;" horiz-adv-x="770" d="M174 942q0 158 110 272q50 52 116.5 82.5t133 30.5t116.5 -19.5t87 -55.5q78 -74 78 -197q0 -163 -109 -276q-106 -109 -242 -109t-213 75.5t-77 196.5zM319 979q0 -180 144 -180q81 0 141 62q66 68 66 158q0 179 -150 179q-77 0 -137 -64q-64 -67 -64 -155z" />
<glyph unicode="&#xbb;" horiz-adv-x="987" d="M8 92l267 391l-119 400h164l131 -406l-269 -385h-174zM354 92l267 391l-119 400h164l131 -406l-269 -385h-174z" />
<glyph unicode="&#xbc;" horiz-adv-x="1826" d="M205 1163l281 142h133l-136 -699h-151l104 531l-186 -86zM312 0l985 1290h182l-985 -1290h-182zM1061 137l23 117l432 447h149l-88 -447h84l-20 -117h-84l-27 -133h-135l27 133h-361zM1217 254h225l58 287z" />
<glyph unicode="&#xbd;" horiz-adv-x="1826" d="M205 1163l281 142h133l-136 -699h-151l104 531l-186 -86zM279 0l985 1290h182l-985 -1290h-182zM1086 2l14 78q12 72 67.5 137.5t144.5 116.5t124 74.5t55 41.5q31 30 31 65.5t-24.5 55t-61.5 19.5q-96 0 -168 -76l-90 82q41 47 110.5 86t175.5 39t164 -52t58 -126 q0 -82 -47 -137q-33 -39 -128 -96.5t-158.5 -97.5t-90.5 -89h350l-26 -121h-500z" />
<glyph unicode="&#xbe;" horiz-adv-x="1826" d="M111 670l69 104q92 -65 173 -65q165 0 165 122q0 55 -33.5 79t-77 24t-75.5 -12l-33 55l228 205h-275l27 123h450l-24 -111l-201 -174q158 -42 158 -184q0 -113 -84 -181.5t-226 -68.5q-137 0 -241 84zM361 0l985 1290h182l-985 -1290h-182zM1061 137l23 117l432 447h149 l-88 -447h84l-20 -117h-84l-27 -133h-135l27 133h-361zM1217 254h225l58 287z" />
<glyph unicode="&#xbf;" horiz-adv-x="995" d="M37 -152q0 186 157 310q50 39 103 73t90 60t65 56q56 62 74 157l11 55h176l-11 -57q-20 -111 -79.5 -197t-169 -155t-171 -128t-61.5 -139t49 -123t136.5 -43t159 30t149.5 114l123 -99q-174 -211 -437 -211q-157 0 -257 77q-107 82 -107 220zM547 727l43 225h219 l-43 -225h-219z" />
<glyph unicode="&#xc0;" horiz-adv-x="1259" d="M-51 0l776 1366h193l249 -1366h-200l-62 383h-543l-208 -383h-205zM449 545h430l-99 608zM645 1782h215l84 -307h-156z" />
<glyph unicode="&#xc1;" horiz-adv-x="1259" d="M-51 0l776 1366h193l249 -1366h-200l-62 383h-543l-208 -383h-205zM449 545h430l-99 608zM725 1475l188 307h225l-254 -307h-159z" />
<glyph unicode="&#xc2;" horiz-adv-x="1259" d="M-51 0l776 1366h193l249 -1366h-200l-62 383h-543l-208 -383h-205zM449 545h430l-99 608zM528 1475l287 307h172l156 -307h-160l-104 188l-181 -188h-170z" />
<glyph unicode="&#xc3;" horiz-adv-x="1259" d="M-51 0l776 1366h193l249 -1366h-200l-62 383h-543l-208 -383h-205zM449 545h430l-99 608zM457 1632q45 41 108.5 80t128 39t96 -14.5t60.5 -32.5t57.5 -32.5t76.5 -14.5t85 21.5t76 52.5l68 -111q-131 -119 -236 -119q-65 0 -97 14.5t-61 32.5q-71 47 -124.5 47 t-91.5 -20.5t-79 -52.5z" />
<glyph unicode="&#xc4;" horiz-adv-x="1259" d="M-51 0l776 1366h193l249 -1366h-200l-62 383h-543l-208 -383h-205zM449 545h430l-99 608zM555 1528l39 201h197l-39 -201h-197zM938 1528l39 201h199l-39 -201h-199z" />
<glyph unicode="&#xc5;" horiz-adv-x="1259" d="M-51 0l756 1329q-109 73 -109 203q0 105 72 175q70 69 176 69q108 0 176 -68q72 -72 72 -164t-46.5 -153.5t-117.5 -85.5l239 -1305h-200l-62 383h-543l-208 -383h-205zM449 545h430l-99 608zM727 1533q0 -54 32 -88t86 -34t86 35t32 89t-32 87t-86 33t-86 -34t-32 -88z " />
<glyph unicode="&#xc6;" horiz-adv-x="1869" d="M-45 0l1067 1366h930l-33 -174h-639l-78 -399h481l-32 -172h-484l-86 -445h686l-32 -176h-873l72 371h-485l-291 -371h-203zM573 530h392l129 664z" />
<glyph unicode="&#xc7;" horiz-adv-x="1316" d="M137 563q0 164 57.5 315.5t161 267.5t246.5 185.5t317 69.5q328 0 472 -285l-148 -94q-63 109 -142 157t-204 48t-228.5 -53.5t-176.5 -143.5q-154 -188 -154 -450q0 -190 99 -310q104 -127 284 -127q244 0 403 201l127 -125q-213 -254 -538 -254q-259 0 -420 167 q-156 162 -156 431zM395 -430l39 111q75 -29 143 -29t105 24.5t37 65.5q0 61 -98 61q-72 0 -148 -26l35 112q89 27 176.5 27t140 -44t52.5 -106.5t-24.5 -104.5t-64.5 -69q-76 -53 -180 -53q-128 0 -213 31z" />
<glyph unicode="&#xc8;" horiz-adv-x="1085" d="M78 0l264 1366h825l-32 -174h-639l-78 -399h481l-33 -172h-483l-86 -445h686l-33 -176h-872zM580 1782h215l84 -307h-156z" />
<glyph unicode="&#xc9;" horiz-adv-x="1085" d="M78 0l264 1366h825l-32 -174h-639l-78 -399h481l-33 -172h-483l-86 -445h686l-33 -176h-872zM654 1475l188 307h225l-254 -307h-159z" />
<glyph unicode="&#xca;" horiz-adv-x="1085" d="M78 0l264 1366h825l-32 -174h-639l-78 -399h481l-33 -172h-483l-86 -445h686l-33 -176h-872zM460 1475l287 307h172l156 -307h-160l-104 188l-181 -188h-170z" />
<glyph unicode="&#xcb;" horiz-adv-x="1085" d="M78 0l264 1366h825l-32 -174h-639l-78 -399h481l-33 -172h-483l-86 -445h686l-33 -176h-872zM489 1528l39 201h197l-39 -201h-197zM872 1528l39 201h199l-39 -201h-199z" />
<glyph unicode="&#xcc;" horiz-adv-x="487" d="M78 0l264 1366h188l-264 -1366h-188zM264 1782h215l84 -307h-156z" />
<glyph unicode="&#xcd;" horiz-adv-x="487" d="M78 0l264 1366h188l-264 -1366h-188zM342 1475l188 307h225l-254 -307h-159z" />
<glyph unicode="&#xce;" horiz-adv-x="487" d="M78 0l264 1366h188l-264 -1366h-188zM141 1475l287 307h172l156 -307h-160l-104 188l-181 -188h-170z" />
<glyph unicode="&#xcf;" horiz-adv-x="487" d="M78 0l264 1366h188l-264 -1366h-188zM168 1528l39 201h197l-39 -201h-197zM551 1528l39 201h199l-39 -201h-199z" />
<glyph unicode="&#xd0;" horiz-adv-x="1433" d="M76 618l30 158h142l114 590h422q284 0 449 -148q166 -148 166 -403q0 -362 -229 -587q-232 -228 -619 -228h-453l119 618h-141zM319 176h261q276 0 446 166t170 449q0 186 -111.5 292.5t-347.5 106.5h-219l-82 -414h330l-31 -158h-329z" />
<glyph unicode="&#xd1;" horiz-adv-x="1390" d="M78 0l264 1366h190l506 -1081l211 1081h185l-265 -1366h-188l-508 1083l-211 -1083h-184zM524 1632q45 41 108.5 80t128 39t96 -14.5t60.5 -32.5t57.5 -32.5t76.5 -14.5t85 21.5t76 52.5l68 -111q-131 -119 -236 -119q-65 0 -97 14.5t-61 32.5q-71 47 -124.5 47 t-91.5 -20.5t-79 -52.5z" />
<glyph unicode="&#xd2;" horiz-adv-x="1521" d="M137 541q0 172 56.5 327.5t159 274.5t246 188.5t293 69.5t255.5 -40t184 -115q168 -162 168 -421q0 -168 -55 -323.5t-155.5 -274t-242 -190.5t-294 -72t-262 43t-188.5 120q-165 161 -165 413zM338 588.5q0 -105.5 25.5 -184t75.5 -136.5q106 -125 300 -125 q125 0 228.5 56.5t177.5 146.5t113.5 205t39.5 219t-23.5 185t-71.5 141q-104 131 -300 131q-133 0 -238.5 -57.5t-178 -149.5t-110.5 -209t-38 -222.5zM793 1782h215l84 -307h-156z" />
<glyph unicode="&#xd3;" horiz-adv-x="1521" d="M137 541q0 172 56.5 327.5t159 274.5t246 188.5t293 69.5t255.5 -40t184 -115q168 -162 168 -421q0 -168 -55 -323.5t-155.5 -274t-242 -190.5t-294 -72t-262 43t-188.5 120q-165 161 -165 413zM338 588.5q0 -105.5 25.5 -184t75.5 -136.5q106 -125 300 -125 q125 0 228.5 56.5t177.5 146.5t113.5 205t39.5 219t-23.5 185t-71.5 141q-104 131 -300 131q-133 0 -238.5 -57.5t-178 -149.5t-110.5 -209t-38 -222.5zM820 1475l188 307h225l-254 -307h-159z" />
<glyph unicode="&#xd4;" horiz-adv-x="1521" d="M137 541q0 172 56.5 327.5t159 274.5t246 188.5t293 69.5t255.5 -40t184 -115q168 -162 168 -421q0 -168 -55 -323.5t-155.5 -274t-242 -190.5t-294 -72t-262 43t-188.5 120q-165 161 -165 413zM338 588.5q0 -105.5 25.5 -184t75.5 -136.5q106 -125 300 -125 q125 0 228.5 56.5t177.5 146.5t113.5 205t39.5 219t-23.5 185t-71.5 141q-104 131 -300 131q-133 0 -238.5 -57.5t-178 -149.5t-110.5 -209t-38 -222.5zM614 1475l287 307h172l156 -307h-160l-104 188l-181 -188h-170z" />
<glyph unicode="&#xd5;" horiz-adv-x="1521" d="M137 541q0 172 56.5 327.5t159 274.5t246 188.5t293 69.5t255.5 -40t184 -115q168 -162 168 -421q0 -168 -55 -323.5t-155.5 -274t-242 -190.5t-294 -72t-262 43t-188.5 120q-165 161 -165 413zM338 588.5q0 -105.5 25.5 -184t75.5 -136.5q106 -125 300 -125 q125 0 228.5 56.5t177.5 146.5t113.5 205t39.5 219t-23.5 185t-71.5 141q-104 131 -300 131q-133 0 -238.5 -57.5t-178 -149.5t-110.5 -209t-38 -222.5zM580 1632q45 41 108.5 80t128 39t96 -14.5t60.5 -32.5t57.5 -32.5t76.5 -14.5t85 21.5t76 52.5l68 -111 q-131 -119 -236 -119q-65 0 -97 14.5t-61 32.5q-71 47 -124.5 47t-91.5 -20.5t-79 -52.5z" />
<glyph unicode="&#xd6;" horiz-adv-x="1521" d="M137 541q0 172 56.5 327.5t159 274.5t246 188.5t293 69.5t255.5 -40t184 -115q168 -162 168 -421q0 -168 -55 -323.5t-155.5 -274t-242 -190.5t-294 -72t-262 43t-188.5 120q-165 161 -165 413zM338 588.5q0 -105.5 25.5 -184t75.5 -136.5q106 -125 300 -125 q125 0 228.5 56.5t177.5 146.5t113.5 205t39.5 219t-23.5 185t-71.5 141q-104 131 -300 131q-133 0 -238.5 -57.5t-178 -149.5t-110.5 -209t-38 -222.5zM632 1528l39 201h197l-39 -201h-197zM1015 1528l39 201h199l-39 -201h-199z" />
<glyph unicode="&#xd7;" d="M215 408l291 256l-184 245l122 99l187 -244l284 250l95 -107l-291 -256l184 -245l-123 -99l-186 244l-285 -250z" />
<glyph unicode="&#xd8;" horiz-adv-x="1521" d="M92 -27l170 197q-125 157 -125 371q0 172 56.5 327.5t159 274.5t245.5 188.5t326.5 69.5t328.5 -94l158 180l113 -94l-160 -183q135 -159 135 -385q0 -168 -55 -323.5t-155.5 -274t-242 -190.5t-332 -72t-343.5 105l-166 -191zM338 563q0 -131 59 -237l733 837 q-92 63 -226 63.5t-239.5 -57t-178 -149.5t-110.5 -209t-38 -248zM498 215q97 -72 231.5 -72t238 56.5t177.5 146.5t113.5 204.5t39.5 211.5q0 184 -67 295z" />
<glyph unicode="&#xd9;" horiz-adv-x="1323" d="M156 391q0 61 12 129l164 846h188l-155 -799q-17 -87 -17 -147q0 -127 64.5 -201t220.5 -74q179 0 271 100q82 89 124 302l160 819h188l-168 -866q-53 -261 -186 -390q-151 -145 -406 -145q-223 0 -346 121q-114 114 -114 305zM678 1782h215l84 -307h-156z" />
<glyph unicode="&#xda;" horiz-adv-x="1323" d="M156 391q0 61 12 129l164 846h188l-155 -799q-17 -87 -17 -147q0 -127 64.5 -201t220.5 -74q179 0 271 100q82 89 124 302l160 819h188l-168 -866q-53 -261 -186 -390q-151 -145 -406 -145q-223 0 -346 121q-114 114 -114 305zM740 1475l188 307h225l-254 -307h-159z" />
<glyph unicode="&#xdb;" horiz-adv-x="1323" d="M156 391q0 61 12 129l164 846h188l-155 -799q-17 -87 -17 -147q0 -127 64.5 -201t220.5 -74q179 0 271 100q82 89 124 302l160 819h188l-168 -866q-53 -261 -186 -390q-151 -145 -406 -145q-223 0 -346 121q-114 114 -114 305zM553 1475l287 307h172l156 -307h-160 l-104 188l-181 -188h-170z" />
<glyph unicode="&#xdc;" horiz-adv-x="1323" d="M156 391q0 61 12 129l164 846h188l-155 -799q-17 -87 -17 -147q0 -127 64.5 -201t220.5 -74q179 0 271 100q82 89 124 302l160 819h188l-168 -866q-53 -261 -186 -390q-151 -145 -406 -145q-223 0 -346 121q-114 114 -114 305zM581 1528l39 201h197l-39 -201h-197z M964 1528l39 201h199l-39 -201h-199z" />
<glyph unicode="&#xdd;" horiz-adv-x="1134" d="M203 1366h198l228 -588l456 588h213l-600 -756l-116 -610h-191l117 608zM648 1475l188 307h225l-254 -307h-159z" />
<glyph unicode="&#xde;" horiz-adv-x="1112" d="M98 0l264 1366h181l-49 -250h219q203 0 306 -114q87 -95 87 -227t-44 -223t-119 -150q-144 -115 -380 -115h-229l-55 -287h-181zM367 455h227q147 0 229 71.5t82 216.5q0 92 -56 148.5t-167 56.5h-221z" />
<glyph unicode="&#xdf;" horiz-adv-x="1132" d="M51 0l189 973q43 221 152.5 323.5t301.5 102.5q130 0 224 -73q94 -74 94 -181q0 -140 -98 -233q-27 -27 -70 -66t-88 -80t-45 -96q0 -46 25 -64q40 -30 141 -73q182 -77 182 -257q0 -129 -94 -215q-99 -90 -256 -90q-92 0 -173 18.5t-167 84.5l96 131q96 -76 189 -79 q26 -1 51 -1q86 0 130 38t44 85t-15.5 72.5t-39.5 45.5q-30 23 -111.5 58t-129.5 79t-48 136q0 118 116 225q33 31 72 67t76 79t37 101t-44 95t-124 37q-117 0 -173.5 -71.5t-82.5 -208.5l-187 -963h-174z" />
<glyph unicode="&#xe0;" horiz-adv-x="980" d="M45 213.5q0 101.5 34 172.5t95 120q126 100 340 100q140 0 219 -18l6 33q6 25 6 49q0 72 -47 116.5t-149 44.5t-167 -30.5t-112 -61.5l-73 119q166 123 391 123q145 0 235 -78t90 -215q0 -43 -8 -82l-82 -418q-27 -141 -32 -188h-164l16 115q-138 -142 -319 -142 q-115 0 -195 68q-84 71 -84 172.5zM221 267q0 -83 40 -115.5t106.5 -32.5t115.5 18.5t91 50.5q94 70 114 168l19 97q-101 14 -188 14t-144.5 -17.5t-90.5 -45.5q-63 -54 -63 -137zM446 1386h190l58 -278h-142z" />
<glyph unicode="&#xe1;" horiz-adv-x="980" d="M45 213.5q0 101.5 34 172.5t95 120q126 100 340 100q140 0 219 -18l6 33q6 25 6 49q0 72 -47 116.5t-149 44.5t-167 -30.5t-112 -61.5l-73 119q166 123 391 123q145 0 235 -78t90 -215q0 -43 -8 -82l-82 -418q-27 -141 -32 -188h-164l16 115q-138 -142 -319 -142 q-115 0 -195 68q-84 71 -84 172.5zM221 267q0 -83 40 -115.5t106.5 -32.5t115.5 18.5t91 50.5q94 70 114 168l19 97q-101 14 -188 14t-144.5 -17.5t-90.5 -45.5q-63 -54 -63 -137zM518 1108l151 278h195l-201 -278h-145z" />
<glyph unicode="&#xe2;" horiz-adv-x="980" d="M45 213.5q0 101.5 34 172.5t95 120q126 100 340 100q140 0 219 -18l6 33q6 25 6 49q0 72 -47 116.5t-149 44.5t-167 -30.5t-112 -61.5l-73 119q166 123 391 123q145 0 235 -78t90 -215q0 -43 -8 -82l-82 -418q-27 -141 -32 -188h-164l16 115q-138 -142 -319 -142 q-115 0 -195 68q-84 71 -84 172.5zM221 267q0 -83 40 -115.5t106.5 -32.5t115.5 18.5t91 50.5q94 70 114 168l19 97q-101 14 -188 14t-144.5 -17.5t-90.5 -45.5q-63 -54 -63 -137zM312 1104l252 280h165l140 -280h-162l-78 170l-156 -170h-161z" />
<glyph unicode="&#xe3;" horiz-adv-x="980" d="M45 213.5q0 101.5 34 172.5t95 120q126 100 340 100q140 0 219 -18l6 33q6 25 6 49q0 72 -47 116.5t-149 44.5t-167 -30.5t-112 -61.5l-73 119q166 123 391 123q145 0 235 -78t90 -215q0 -43 -8 -82l-82 -418q-27 -141 -32 -188h-164l16 115q-138 -142 -319 -142 q-115 0 -195 68q-84 71 -84 172.5zM221 267q0 -83 40 -115.5t106.5 -32.5t115.5 18.5t91 50.5q94 70 114 168l19 97q-101 14 -188 14t-144.5 -17.5t-90.5 -45.5q-63 -54 -63 -137zM256 1239q117 111 242 111q43 0 72.5 -14.5t56.5 -31t54.5 -30.5t70.5 -14q67 0 153 71 l64 -104q-117 -111 -242 -111q-43 0 -72.5 14.5t-55.5 31.5q-72 44 -120 44t-84 -20.5t-75 -50.5z" />
<glyph unicode="&#xe4;" horiz-adv-x="980" d="M45 213.5q0 101.5 34 172.5t95 120q126 100 340 100q140 0 219 -18l6 33q6 25 6 49q0 72 -47 116.5t-149 44.5t-167 -30.5t-112 -61.5l-73 119q166 123 391 123q145 0 235 -78t90 -215q0 -43 -8 -82l-82 -418q-27 -141 -32 -188h-164l16 115q-138 -142 -319 -142 q-115 0 -195 68q-84 71 -84 172.5zM221 267q0 -83 40 -115.5t106.5 -32.5t115.5 18.5t91 50.5q94 70 114 168l19 97q-101 14 -188 14t-144.5 -17.5t-90.5 -45.5q-63 -54 -63 -137zM348 1147l37 186h186l-37 -186h-186zM686 1147l37 186h182l-37 -186h-182z" />
<glyph unicode="&#xe5;" horiz-adv-x="980" d="M45 213.5q0 101.5 34 172.5t95 120q126 100 340 100q140 0 219 -18l6 33q6 25 6 49q0 72 -47 116.5t-149 44.5t-167 -30.5t-112 -61.5l-73 119q166 123 391 123q145 0 235 -78t90 -215q0 -43 -8 -82l-82 -418q-27 -141 -32 -188h-164l16 115q-138 -142 -319 -142 q-115 0 -195 68q-84 71 -84 172.5zM221 267q0 -83 40 -115.5t106.5 -32.5t115.5 18.5t91 50.5q94 70 114 168l19 97q-101 14 -188 14t-144.5 -17.5t-90.5 -45.5q-63 -54 -63 -137zM426 1313q0 94 64 157q64 62 157 62t156 -62q65 -62 65 -155q0 -95 -65 -158 q-62 -61 -154 -61q-93 0 -158 61t-65 156zM544 1313q0 -47 30 -78t73 -31t73.5 31t30.5 78t-30.5 76.5t-73.5 29.5t-73 -29.5t-30 -76.5z" />
<glyph unicode="&#xe6;" horiz-adv-x="1646" d="M29 229q0 165 125 261t340 96q136 0 219 -19l10 54q6 25 6 49q0 72 -47 116.5t-149 44.5t-167 -30.5t-112 -61.5l-74 119q166 123 380 123t298 -156q70 70 155 114t193 44t179 -31.5t116 -85.5q86 -105 86 -282q0 -80 -18 -162h-707q-2 -10 -2 -18v-13 q0 -113 63.5 -189.5t186.5 -76.5q99 0 146 21q80 37 145 102l100 -107q-158 -170 -418 -170q-104 0 -195 43t-157 156q-68 -82 -163 -139.5t-240 -57.5q-128 0 -212 67q-87 70 -87 189zM205 263q0 -79 41 -111.5t106.5 -32.5t115.5 18.5t92 50.5q92 68 112 168l14 76 q-101 14 -187.5 14t-143 -16t-90.5 -42q-60 -46 -60 -125zM885 557h532l2 37q0 104 -53 175t-167 71t-195.5 -75t-118.5 -208z" />
<glyph unicode="&#xe7;" horiz-adv-x="972" d="M96 371q0 265 158 440q155 172 394 172t335 -217l-133 -74q-37 66 -87 100.5t-129 34.5t-140.5 -30.5t-108.5 -86.5q-104 -122 -104 -311q0 -119 66.5 -195.5t162.5 -76.5t154.5 30.5t113.5 84.5l99 -111q-151 -160 -381 -160q-182 0 -293 115q-107 111 -107 285z M182 -430l39 111q75 -29 143 -29t102.5 24.5t34.5 62.5t-24.5 51t-68.5 13q-74 0 -148 -26l34 112q89 27 173 27t133 -44t49 -106.5t-22.5 -104.5t-60.5 -69q-73 -53 -178 -53q-128 0 -206 31z" />
<glyph unicode="&#xe8;" horiz-adv-x="1058" d="M98 375q0 257 148 430q71 82 167.5 130t205 48t179 -31.5t115.5 -85.5q86 -105 86 -282q0 -80 -18 -162h-707q-2 -10 -2 -18v-13q0 -113 62.5 -189.5t172 -76.5t175.5 29.5t131 93.5l100 -107q-68 -72 -169 -121t-217.5 -49t-193.5 31t-129 85q-106 110 -106 288z M297 557h532l2 37q0 104 -53 175t-167 71t-195.5 -75t-118.5 -208zM514 1386h190l58 -278h-142z" />
<glyph unicode="&#xe9;" horiz-adv-x="1058" d="M98 375q0 257 148 430q71 82 167.5 130t205 48t179 -31.5t115.5 -85.5q86 -105 86 -282q0 -80 -18 -162h-707q-2 -10 -2 -18v-13q0 -113 62.5 -189.5t172 -76.5t175.5 29.5t131 93.5l100 -107q-68 -72 -169 -121t-217.5 -49t-193.5 31t-129 85q-106 110 -106 288z M297 557h532l2 37q0 104 -53 175t-167 71t-195.5 -75t-118.5 -208zM563 1108l151 278h195l-201 -278h-145z" />
<glyph unicode="&#xea;" horiz-adv-x="1058" d="M98 375q0 257 148 430q71 82 167.5 130t205 48t179 -31.5t115.5 -85.5q86 -105 86 -282q0 -80 -18 -162h-707q-2 -10 -2 -18v-13q0 -113 62.5 -189.5t172 -76.5t175.5 29.5t131 93.5l100 -107q-68 -72 -169 -121t-217.5 -49t-193.5 31t-129 85q-106 110 -106 288z M297 557h532l2 37q0 104 -53 175t-167 71t-195.5 -75t-118.5 -208zM357 1104l252 280h165l140 -280h-162l-78 170l-156 -170h-161z" />
<glyph unicode="&#xeb;" horiz-adv-x="1058" d="M98 375q0 257 148 430q71 82 167.5 130t205 48t179 -31.5t115.5 -85.5q86 -105 86 -282q0 -80 -18 -162h-707q-2 -10 -2 -18v-13q0 -113 62.5 -189.5t172 -76.5t175.5 29.5t131 93.5l100 -107q-68 -72 -169 -121t-217.5 -49t-193.5 31t-129 85q-106 110 -106 288z M297 557h532l2 37q0 104 -53 175t-167 71t-195.5 -75t-118.5 -208zM393 1147l37 186h186l-37 -186h-186zM731 1147l37 186h182l-37 -186h-182z" />
<glyph unicode="&#xec;" horiz-adv-x="436" d="M57 0l185 952h178l-184 -952h-179zM199 1386h190l58 -278h-142z" />
<glyph unicode="&#xed;" horiz-adv-x="436" d="M57 0l185 952h178l-184 -952h-179zM268 1108l151 278h195l-201 -278h-145z" />
<glyph unicode="&#xee;" horiz-adv-x="436" d="M57 0l185 952h178l-184 -952h-179zM66 1104l252 280h165l140 -280h-162l-78 170l-156 -170h-161z" />
<glyph unicode="&#xef;" horiz-adv-x="436" d="M57 0l185 952h178l-184 -952h-179zM92 1147l37 186h186l-37 -186h-186zM430 1147l37 186h182l-37 -186h-182z" />
<glyph unicode="&#xf0;" horiz-adv-x="1071" d="M70 383q0 223 144 380q150 163 380 163q114 0 242 -62q-41 193 -191 293l-125 -143l-88 71l109 125q-74 27 -164 37l35 142q132 -16 235 -58l129 146l88 -72l-110 -127q276 -176 276 -578q0 -290 -146 -500q-71 -104 -176.5 -166.5t-221 -62.5t-189.5 30t-124 84 q-103 111 -103 298zM250 412q0 -203 124 -264q44 -21 105 -21t124 31.5t115 99.5q119 155 126 430q-109 82 -260 82q-147 0 -243 -106q-91 -100 -91 -252z" />
<glyph unicode="&#xf1;" horiz-adv-x="1069" d="M51 0l144 745q12 63 21 109.5t17 97.5h168l-22 -143q78 86 158.5 126t196.5 40t191.5 -78t75.5 -209q0 -62 -10 -117l-110 -571h-176l106 557q10 51 10 86q0 82 -36.5 127t-111.5 45t-133.5 -29.5t-103.5 -79.5q-91 -100 -123 -255l-86 -451h-176zM348 1239 q117 111 242 111q43 0 72.5 -14.5t56.5 -31t54.5 -30.5t70.5 -14q67 0 153 71l64 -104q-117 -111 -242 -111q-43 0 -72.5 14.5t-55.5 31.5q-72 44 -120 44t-84 -20.5t-75 -50.5z" />
<glyph unicode="&#xf2;" horiz-adv-x="1124" d="M96 383q0 247 162 422q76 82 176 130t205.5 48t181.5 -28.5t131 -82.5q113 -114 113 -303q0 -251 -157 -425q-157 -173 -402 -173q-182 0 -296 114t-114 298zM276 412q0 -125 59.5 -205t186.5 -80q140 0 248 115q115 123 115 301q0 133 -61.5 208.5t-195 75.5 t-243 -121.5t-109.5 -293.5zM537 1386h190l58 -278h-142z" />
<glyph unicode="&#xf3;" horiz-adv-x="1124" d="M96 383q0 247 162 422q76 82 176 130t205.5 48t181.5 -28.5t131 -82.5q113 -114 113 -303q0 -251 -157 -425q-157 -173 -402 -173q-182 0 -296 114t-114 298zM276 412q0 -125 59.5 -205t186.5 -80q140 0 248 115q115 123 115 301q0 133 -61.5 208.5t-195 75.5 t-243 -121.5t-109.5 -293.5zM606 1108l151 278h195l-201 -278h-145z" />
<glyph unicode="&#xf4;" horiz-adv-x="1124" d="M96 383q0 247 162 422q76 82 176 130t205.5 48t181.5 -28.5t131 -82.5q113 -114 113 -303q0 -251 -157 -425q-157 -173 -402 -173q-182 0 -296 114t-114 298zM276 412q0 -125 59.5 -205t186.5 -80q140 0 248 115q115 123 115 301q0 133 -61.5 208.5t-195 75.5 t-243 -121.5t-109.5 -293.5zM392 1104l252 280h165l140 -280h-162l-78 170l-156 -170h-161z" />
<glyph unicode="&#xf5;" horiz-adv-x="1124" d="M96 383q0 247 162 422q76 82 176 130t205.5 48t181.5 -28.5t131 -82.5q113 -114 113 -303q0 -251 -157 -425q-157 -173 -402 -173q-182 0 -296 114t-114 298zM276 412q0 -125 59.5 -205t186.5 -80q140 0 248 115q115 123 115 301q0 133 -61.5 208.5t-195 75.5 t-243 -121.5t-109.5 -293.5zM346 1239q117 111 242 111q43 0 72.5 -14.5t56.5 -31t54.5 -30.5t70.5 -14q67 0 153 71l64 -104q-117 -111 -242 -111q-43 0 -72.5 14.5t-55.5 31.5q-72 44 -120 44t-84 -20.5t-75 -50.5z" />
<glyph unicode="&#xf6;" horiz-adv-x="1124" d="M96 383q0 247 162 422q76 82 176 130t205.5 48t181.5 -28.5t131 -82.5q113 -114 113 -303q0 -251 -157 -425q-157 -173 -402 -173q-182 0 -296 114t-114 298zM276 412q0 -125 59.5 -205t186.5 -80q140 0 248 115q115 123 115 301q0 133 -61.5 208.5t-195 75.5 t-243 -121.5t-109.5 -293.5zM424 1147l37 186h186l-37 -186h-186zM762 1147l37 186h182l-37 -186h-182z" />
<glyph unicode="&#xf7;" d="M186 580l31 155h801l-31 -155h-801zM438 254l33 174h174l-33 -174h-174zM561 889l33 172h174l-33 -172h-174z" />
<glyph unicode="&#xf8;" horiz-adv-x="1124" d="M59 -33l125 146q-88 106 -88 248.5t43 252t119 191.5q165 178 393 178q137 0 236 -61l125 145l94 -76l-129 -149q88 -114 88 -256t-42 -251.5t-115.5 -190.5t-176 -127t-228.5 -46t-229 62l-120 -142zM276 412q0 -94 31 -158l467 539q-59 34 -134 34t-138.5 -31.5 t-113.5 -87.5q-112 -124 -112 -296zM387 162q53 -35 128 -35t139.5 30.5t115.5 84.5q115 123 115 301q0 92 -31 157z" />
<glyph unicode="&#xf9;" horiz-adv-x="1058" d="M96 264q0 62 10 117l111 571h176l-106 -557q-10 -51 -10.5 -109.5t35.5 -103.5t111 -45t132 30t103 79q92 96 122 256l86 450h176l-143 -745q-12 -63 -21.5 -109.5t-17.5 -97.5h-168l23 143q-78 -86 -158 -126t-195.5 -40t-190.5 78t-75 209zM479 1386h190l58 -278h-142z " />
<glyph unicode="&#xfa;" horiz-adv-x="1058" d="M96 264q0 62 10 117l111 571h176l-106 -557q-10 -51 -10.5 -109.5t35.5 -103.5t111 -45t132 30t103 79q92 96 122 256l86 450h176l-143 -745q-12 -63 -21.5 -109.5t-17.5 -97.5h-168l23 143q-78 -86 -158 -126t-195.5 -40t-190.5 78t-75 209zM551 1108l151 278h195 l-201 -278h-145z" />
<glyph unicode="&#xfb;" horiz-adv-x="1058" d="M96 264q0 62 10 117l111 571h176l-106 -557q-10 -51 -10.5 -109.5t35.5 -103.5t111 -45t132 30t103 79q92 96 122 256l86 450h176l-143 -745q-12 -63 -21.5 -109.5t-17.5 -97.5h-168l23 143q-78 -86 -158 -126t-195.5 -40t-190.5 78t-75 209zM367 1104l252 280h165 l140 -280h-162l-78 170l-156 -170h-161z" />
<glyph unicode="&#xfc;" horiz-adv-x="1058" d="M96 264q0 62 10 117l111 571h176l-106 -557q-10 -51 -10.5 -109.5t35.5 -103.5t111 -45t132 30t103 79q92 96 122 256l86 450h176l-143 -745q-12 -63 -21.5 -109.5t-17.5 -97.5h-168l23 143q-78 -86 -158 -126t-195.5 -40t-190.5 78t-75 209zM393 1147l37 186h186 l-37 -186h-186zM731 1147l37 186h182l-37 -186h-182z" />
<glyph unicode="&#xfd;" horiz-adv-x="987" d="M-98 -371l67 127q59 -41 102.5 -41t68 12.5t48.5 40.5q38 44 117 185l35 61l-223 938h196l154 -719l399 719h199l-619 -1058q-105 -177 -155 -230q-96 -100 -199 -100q-122 0 -190 65zM502 1108l151 278h195l-201 -278h-145z" />
<glyph unicode="&#xfe;" horiz-adv-x="1107" d="M-29 -410l344 1778h172l-108 -559q18 18 46 47t69 54q104 65 229 65q145 0 240 -110q88 -102 88 -259.5t-52.5 -279t-133.5 -200.5t-181.5 -117t-188.5 -38t-143 18.5t-119 57.5l-88 -457h-174zM266 207q88 -80 211 -80q288 0 372 315q17 64 17 155t-44 155.5t-148 64.5 q-133 0 -233 -102t-130 -266z" />
<glyph unicode="&#xff;" horiz-adv-x="987" d="M-98 -371l67 127q59 -41 102.5 -41t68 12.5t48.5 40.5q38 44 117 185l35 61l-223 938h196l154 -719l399 719h199l-619 -1058q-105 -177 -155 -230q-96 -100 -199 -100q-122 0 -190 65zM344 1147l37 186h186l-37 -186h-186zM682 1147l37 186h182l-37 -186h-182z" />
<glyph unicode="&#x152;" horiz-adv-x="2162" d="M137 541q0 172 56.5 327.5t159 274.5t245.5 188.5t320 69.5q305 0 462 -252l43 217h822l-33 -174h-639l-78 -399h481l-32 -172h-482l-88 -445h686l-32 -176h-869l31 160q-209 -195 -455 -195q-266 0 -433 163q-165 161 -165 413zM338 588.5q0 -105.5 25.5 -184 t75.5 -136.5q106 -125 300 -125q125 0 228.5 56.5t177.5 146.5t113.5 205t39.5 219t-23.5 185t-71.5 141q-104 131 -300 131q-133 0 -238.5 -57.5t-178 -149.5t-110.5 -209t-38 -222.5z" />
<glyph unicode="&#x153;" horiz-adv-x="1830" d="M96 383q0 247 162 422q165 178 393 178q129 0 212 -55.5t138 -157.5q86 104 177.5 158.5t206 54.5t185 -31.5t116.5 -85.5q86 -104 86 -282q0 -80 -19 -162h-704q-4 -12 -5 -19v-12q0 -113 63.5 -189.5t186.5 -76.5q99 0 146 21q80 37 145 102l101 -107 q-158 -170 -418 -170q-133 0 -215 56.5t-135 158.5q-78 -104 -186.5 -159.5t-213 -55.5t-179.5 30t-129 84q-114 114 -114 298zM276 412q0 -125 59.5 -205t186.5 -80q140 0 248 115q115 123 115 301q0 133 -61.5 208.5t-195 75.5t-243 -121.5t-109.5 -293.5zM1069 557h533 l2 37q0 104 -53.5 175t-167.5 71t-195.5 -75t-118.5 -208z" />
<glyph unicode="&#x178;" horiz-adv-x="1134" d="M203 1366h198l228 -588l456 588h213l-600 -756l-116 -610h-191l117 608zM469 1528l39 201h197l-39 -201h-197zM852 1528l39 201h199l-39 -201h-199z" />
<glyph unicode="&#x2c6;" horiz-adv-x="806" d="M283 1104l252 280h165l140 -280h-162l-78 170l-156 -170h-161z" />
<glyph unicode="&#x2dc;" horiz-adv-x="821" d="M225 1239q117 111 242 111q43 0 72.5 -14.5t56.5 -31t54.5 -30.5t70.5 -14q67 0 153 71l64 -104q-117 -111 -242 -111q-43 0 -72.5 14.5t-55.5 31.5q-72 44 -120 44t-84 -20.5t-75 -50.5z" />
<glyph unicode="&#x2000;" horiz-adv-x="891" />
<glyph unicode="&#x2001;" horiz-adv-x="1782" />
<glyph unicode="&#x2002;" horiz-adv-x="891" />
<glyph unicode="&#x2003;" horiz-adv-x="1782" />
<glyph unicode="&#x2004;" horiz-adv-x="594" />
<glyph unicode="&#x2005;" horiz-adv-x="445" />
<glyph unicode="&#x2006;" horiz-adv-x="297" />
<glyph unicode="&#x2007;" horiz-adv-x="297" />
<glyph unicode="&#x2008;" horiz-adv-x="222" />
<glyph unicode="&#x2009;" horiz-adv-x="356" />
<glyph unicode="&#x200a;" horiz-adv-x="99" />
<glyph unicode="&#x2010;" horiz-adv-x="862" d="M166 487l33 172h575l-33 -172h-575z" />
<glyph unicode="&#x2011;" horiz-adv-x="862" d="M166 487l33 172h575l-33 -172h-575z" />
<glyph unicode="&#x2012;" horiz-adv-x="862" d="M166 487l33 172h575l-33 -172h-575z" />
<glyph unicode="&#x2013;" horiz-adv-x="1024" d="M-14 485l32 177h1024l-32 -177h-1024z" />
<glyph unicode="&#x2014;" horiz-adv-x="2048" d="M-14 485l32 177h2048l-32 -177h-2048z" />
<glyph unicode="&#x2018;" horiz-adv-x="468" d="M225 958l176 406h138l-113 -406h-201z" />
<glyph unicode="&#x2019;" horiz-adv-x="468" d="M246 958l112 406h199l-174 -406h-137z" />
<glyph unicode="&#x201a;" horiz-adv-x="487" d="M37 -174l110 403h199l-172 -403h-137z" />
<glyph unicode="&#x201c;" horiz-adv-x="802" d="M225 958l176 406h138l-113 -406h-201zM559 958l176 406h138l-113 -406h-201z" />
<glyph unicode="&#x201d;" horiz-adv-x="802" d="M246 958l112 406h199l-174 -406h-137zM580 958l112 406h199l-174 -406h-137z" />
<glyph unicode="&#x201e;" horiz-adv-x="821" d="M37 -174l110 403h199l-172 -403h-137zM371 -174l110 403h199l-172 -403h-137z" />
<glyph unicode="&#x2022;" horiz-adv-x="786" d="M203 666q0 101 75 177q70 72 177 72q105 0 177 -72q73 -73 73 -177q0 -106 -73 -178q-76 -74 -177 -74q-103 0 -177.5 74.5t-74.5 177.5z" />
<glyph unicode="&#x2026;" horiz-adv-x="1392" d="M66 -2l45 229h223l-45 -229h-223zM510 -2l45 229h223l-45 -229h-223zM955 -2l45 229h223l-45 -229h-223z" />
<glyph unicode="&#x202f;" horiz-adv-x="356" />
<glyph unicode="&#x2039;" horiz-adv-x="638" d="M178 498l268 385h175l-267 -391l119 -400h-164z" />
<glyph unicode="&#x203a;" horiz-adv-x="638" d="M57 92l267 391l-119 400h164l131 -406l-269 -385h-174z" />
<glyph unicode="&#x205f;" horiz-adv-x="445" />
<glyph unicode="&#x20ac;" d="M86 436l41 123h121q4 94 20 180h-123l41 123h115q72 211 221 336q151 129 348 129q233 0 347 -199l-125 -88q-49 72 -103.5 98.5t-136.5 26.5q-123 0 -217 -80.5t-148 -222.5h459l-41 -123h-452q-19 -102 -19 -180h453l-41 -123h-408q34 -299 260 -299q86 0 144.5 30 t113.5 83l97 -115q-149 -158 -349 -158t-317 116t-137 343h-164z" />
<glyph unicode="&#x2122;" horiz-adv-x="1744" d="M209 1235l27 131h682l-27 -131h-266l-125 -653h-150l125 653h-266zM874 582l170 784h138l141 -393l305 393h146l-127 -784h-140l97 571l-289 -365h-58l-131 347l-122 -553h-130z" />
<glyph unicode="&#xe000;" horiz-adv-x="952" d="M0 0v952h952v-952h-952z" />
</font>
</defs>
</svg>
